<svg width="16" height="15" viewBox="0 0 16 15" fill="none" xmlns="http://www.w3.org/2000/svg">
<path fill-rule="evenodd" clip-rule="evenodd" d="M11.2206 6.3466C10.9022 4.47786 9.1513 3.42133 7.29412 3.51204C4.58822 3.7719 2.9109 6.1324 3.05904 8.6914C3.35886 11.7204 5.92416 13.8183 8.96232 13.974C12.1055 14.0466 14.6761 12.1511 15.8639 9.39018C15.8701 9.37554 16.0344 8.96105 15.9935 9.15227C15.7278 10.3788 14.8488 11.5853 13.9383 12.4263C11.1321 14.9271 6.81591 14.9863 4.1359 12.2523C1.92119 9.84275 1.8591 6.18464 4.38364 3.95741C6.44919 2.26956 9.47747 2.24425 11.3202 4.26542C12.8152 6.02489 12.7146 8.71568 10.6877 10.0391C9.11272 11.0137 6.78907 10.615 6.16202 8.74434C5.81144 7.61294 6.42814 6.15775 7.78331 6.1363C8.14177 6.14323 8.54721 6.30749 8.75327 6.59432C8.12339 5.04724 4.76591 6.02933 5.1662 8.72342C5.51021 10.6555 7.40227 11.7478 9.40966 11.6539C12.3344 11.3852 14.1473 8.94525 13.9869 6.29974C13.6629 3.16842 10.8903 0.99936 7.60639 0.838899C4.2091 0.763798 1.43074 2.72324 0.14705 5.57755C0.140503 5.59266 -0.0371399 6.02112 0.00705459 5.82345C0.294356 4.55522 1.24428 3.30834 2.22849 2.43899C5.26147 -0.146133 9.92618 -0.207754 12.8229 2.61875C15.2166 5.10947 15.2836 8.89126 12.5551 11.1939C10.3225 12.9387 7.04939 12.9648 5.05805 10.8752C3.44213 9.05643 3.55075 6.27459 5.74165 4.90661C7.44391 3.89921 9.95528 4.3114 10.6331 6.24531C11.2304 8.01711 9.41033 9.5753 8.08497 8.70004C9.11635 9.76032 11.4909 8.71911 11.2202 6.34699L11.2206 6.3466Z" fill="#EFEFEF" fill-opacity="0.6"/>
</svg>
