<svg width="14" height="12" viewBox="0 0 14 12" fill="none" xmlns="http://www.w3.org/2000/svg">
<path d="M12.41 7.5L4.24312 7.5L4.41938 8.5L12.5 8.5V9.5L3.58063 9.5L2.08063 1L0 1L0 0L2.91938 0L3.18406 1.5L13.61 1.5L12.41 7.5Z" fill="#EFEFEF"/>
<path d="M4.5 12C5.05229 12 5.5 11.5523 5.5 11C5.5 10.4477 5.05229 10 4.5 10C3.94772 10 3.5 10.4477 3.5 11C3.5 11.5523 3.94772 12 4.5 12Z" fill="#EFEFEF"/>
<path d="M11.5 12C12.0523 12 12.5 11.5523 12.5 11C12.5 10.4477 12.0523 10 11.5 10C10.9477 10 10.5 10.4477 10.5 11C10.5 11.5523 10.9477 12 11.5 12Z" fill="#EFEFEF"/>
</svg>
