<svg width="20" height="19" viewBox="0 0 20 19" fill="none" xmlns="http://www.w3.org/2000/svg">
<path fill-rule="evenodd" clip-rule="evenodd" d="M9.30476 1.69976C9.57849 1.94734 9.81018 2.19723 10.0005 2.42586C10.1907 2.19723 10.4224 1.94734 10.6962 1.69976C11.5567 0.921459 12.8327 0.166016 14.5436 0.166016C17.3851 0.166016 19.7209 2.53508 19.7505 5.44648C19.7767 8.05648 18.8266 10.4621 16.8442 12.8059C15.214 14.737 13.0885 16.132 11.2447 17.342C10.9631 17.5268 10.688 17.7073 10.4223 17.8848L10.0005 18.166L9.57858 17.8848C9.31261 17.7071 9.03728 17.5264 8.75537 17.3414C6.91177 16.1315 4.78668 14.7369 3.15671 12.8073C1.17624 10.4635 0.226082 8.05648 0.250457 5.44789C0.279988 2.53508 2.61577 0.166016 5.45733 0.166016C7.16824 0.166016 8.44424 0.921459 9.30476 1.69976ZM1.25041 5.45763C1.27482 3.07029 3.18696 1.16602 5.45733 1.16602C7.28931 1.16602 8.53433 2.22747 9.23183 3.06556L10.0005 3.9891L10.7691 3.06556C11.4666 2.22747 12.7116 1.16602 14.5436 1.16602C16.8142 1.16602 18.7263 3.07067 18.7505 5.45663C18.7739 7.78559 17.9369 9.96549 16.0807 12.1601L16.0801 12.1608C14.5513 13.9717 12.56 15.2804 10.7093 16.4966C10.4702 16.6538 10.2335 16.8093 10.0005 16.9642C9.76708 16.8091 9.53004 16.6533 9.29065 16.496C7.44023 15.28 5.4492 13.9715 3.92064 12.162L3.92053 12.1618C2.06615 9.9673 1.22875 7.78571 1.25041 5.45763Z" fill="#EFEFEF" fill-opacity="0.4"/>
</svg>
