<svg width="18" height="20" viewBox="0 0 18 20" fill="none" xmlns="http://www.w3.org/2000/svg">
<path fill-rule="evenodd" clip-rule="evenodd" d="M15.4528 4.0897C16.7039 3.9402 17.8175 3.53224 17.9206 3.18257C18.0264 2.83542 18.0264 1.9739 17.9206 1.27455C17.8175 0.572659 17.2197 0 16.5928 0C15.966 0 14.371 0.0608135 13.0485 0.13683L11.4086 0.228051C10.0861 0.304067 7.91984 0.301533 6.59733 0.220449L5.33037 0.144432C4.00521 0.0658814 2.32827 0 1.59561 0C0.862936 0 0.180522 0.572659 0.0773667 1.27455C-0.0257889 1.9739 -0.0257889 2.83289 0.0773667 3.18257C0.180522 3.53224 1.28878 3.9402 2.54252 4.0897C3.79626 4.2392 5.76151 4.44698 6.91209 4.5458C8.06003 4.64716 9.94063 4.64716 11.0886 4.5458C12.2365 4.44444 14.1991 4.2392 15.4528 4.0897ZM14.2204 20C15.0033 20 15.9449 19.9189 16.3099 19.8201L16.3152 19.8226C16.6802 19.7238 16.9368 18.619 16.8813 17.3673C16.831 16.1181 16.7437 14.3165 16.6935 13.3663C16.6406 12.4186 16.5533 10.8248 16.5057 9.8239C16.4501 8.82301 16.3655 7.43444 16.3126 6.73255C16.2597 6.0332 15.7915 5.54163 15.2678 5.64045C14.7441 5.73674 13.5909 5.98506 12.7048 6.18523C11.8161 6.38541 11.1257 7.58647 11.168 8.85595L11.2051 10.0596C11.2474 11.329 11.1945 13.3511 11.0887 14.5496C10.9829 15.7481 10.8559 17.385 10.8004 18.1857C10.7501 18.9865 11.1813 19.7213 11.7526 19.8201C12.3292 19.9189 13.4375 20 14.2204 20ZM6.25103 19.8201C5.67442 19.9189 4.56616 20 3.78323 20C3.00031 20 2.06133 19.9189 1.69631 19.8201C1.32866 19.7212 1.07474 18.6165 1.12499 17.3647C1.17525 16.1155 1.26253 14.3139 1.31279 13.3637C1.34368 12.7797 1.38756 11.9524 1.42907 11.1698C1.4551 10.6792 1.4802 10.206 1.50058 9.82134C1.55348 8.82298 1.63812 7.43188 1.69367 6.72999C1.74393 6.03064 2.21474 5.53906 2.73845 5.63788C3.25952 5.73671 4.41275 5.98249 5.29883 6.18267C6.18491 6.38285 6.8779 7.58645 6.83558 8.85339L6.79855 10.057C6.75623 11.3265 6.80913 13.3485 6.91493 14.547C7.01809 15.7456 7.14505 17.3825 7.19795 18.1832C7.25085 18.9839 6.825 19.7187 6.25103 19.8175V19.8201Z" fill="#FF6E00"/>
</svg>
