<svg width="36" height="41" viewBox="0 0 36 41" fill="none" xmlns="http://www.w3.org/2000/svg">
<path d="M7.8559 40.166C9.37826 40.166 11.5332 40.0038 12.6544 39.8062V39.8011C13.7705 39.6035 14.5985 38.1338 14.4956 36.5324C14.3928 34.931 14.1459 31.6572 13.9453 29.2602C13.7396 26.8631 13.6367 22.819 13.719 20.28L13.791 17.8728C13.8733 15.339 12.5258 12.9318 10.8029 12.5314C9.07996 12.131 6.83757 11.6395 5.82438 11.4418C4.80605 11.2442 3.89058 12.2273 3.79286 13.626C3.68486 15.0298 3.52028 17.812 3.41742 19.8087C3.31455 21.8054 3.14997 24.9931 3.05226 26.8935C2.95454 28.7939 2.78482 32.3971 2.6871 34.8955C2.58938 37.399 3.08311 39.6086 3.798 39.8062C4.50775 40.0038 6.33355 40.166 7.8559 40.166Z" fill="#FF6E00"/>
<path d="M28.1505 40.166C29.6729 40.166 31.5038 40.0038 32.2136 39.8062L32.2239 39.8113C32.9336 39.6136 33.4325 37.4041 33.3245 34.9006C33.2267 32.4022 33.057 28.799 32.9593 26.8986C32.8565 25.0032 32.6867 21.8156 32.5942 19.8138C32.4861 17.812 32.3216 15.0349 32.2187 13.6311C32.1158 12.2324 31.2055 11.2493 30.1872 11.4469C29.1689 11.6395 26.9265 12.1361 25.2035 12.5365C23.4755 12.9368 22.1331 15.339 22.2154 17.8779L22.2874 20.2851C22.3697 22.8241 22.2668 26.8682 22.0611 29.2652C21.8554 31.6623 21.6085 34.9361 21.5005 36.5375C21.4028 38.1389 22.2411 39.6086 23.352 39.8062C24.4732 40.0038 26.6282 40.166 28.1505 40.166Z" fill="#FF6E00"/>
<path d="M30.5472 8.34542C32.9799 8.04642 35.1451 7.2305 35.3457 6.53115C35.5514 5.83686 35.5514 4.11382 35.3457 2.71511C35.1451 1.31133 33.9828 0.166016 32.7639 0.166016C31.545 0.166016 28.4437 0.287643 25.8721 0.439676L22.6834 0.622117C20.1119 0.774151 15.8997 0.769082 13.3281 0.606913L10.8646 0.45488C8.28792 0.297778 5.0272 0.166016 3.60257 0.166016C2.17793 0.166016 0.851016 1.31133 0.650435 2.71511C0.449855 4.11382 0.449855 5.8318 0.650435 6.53115C0.851016 7.2305 3.00597 8.04642 5.44379 8.34542C7.88162 8.64441 11.7029 9.05997 13.9402 9.25762C16.1723 9.46033 19.829 9.46033 22.0611 9.25762C24.2932 9.0549 28.1094 8.64441 30.5472 8.34542Z" fill="#FF6E00"/>
</svg>
