<svg width="14" height="14" viewBox="0 0 14 14" fill="none" xmlns="http://www.w3.org/2000/svg">
<path d="M13.9669 10.5669C13.8037 10.3931 13.2278 9.87939 12.169 9.1997C11.1025 8.51407 10.3159 8.08657 10.0903 7.98689C10.0704 7.97807 10.0485 7.97483 10.0269 7.97753C10.0053 7.98023 9.98489 7.98876 9.96779 8.0022C9.60435 8.28564 8.99248 8.80626 8.95966 8.83439C8.74779 9.01595 8.74779 9.01595 8.57435 8.95939C8.26935 8.85939 7.32185 8.35626 6.49623 7.52876C5.6706 6.70126 5.14154 5.73032 5.04154 5.42564C4.98435 5.25189 4.98435 5.25189 5.16654 5.04001C5.19466 5.0072 5.7156 4.39532 5.99904 4.0322C6.01248 4.0151 6.02101 3.99466 6.02371 3.97308C6.02641 3.95149 6.02317 3.92958 6.01435 3.9097C5.91466 3.68376 5.48716 2.89751 4.80154 1.83095C4.12091 0.772512 3.60779 0.196574 3.43404 0.0334494C3.41809 0.0184035 3.39839 0.00793667 3.37699 0.00315189C3.3556 -0.00163288 3.33331 -0.000558419 3.31248 0.00626194C2.70512 0.214976 2.11912 0.481292 1.56248 0.801574C1.02511 1.11396 0.516364 1.47316 0.042164 1.87501C0.0256108 1.88908 0.0132005 1.9074 0.00626385 1.92799C-0.000672766 1.94858 -0.00187396 1.97067 0.00278902 1.99189C0.0681015 2.29626 0.380289 3.56689 1.34904 5.32689C2.33748 7.12314 3.02248 8.04345 4.47404 9.49001C5.9256 10.9366 6.87498 11.6628 8.6731 12.6513C10.4331 13.62 11.7044 13.9325 12.0081 13.9972C12.0294 14.0018 12.0515 14.0006 12.0721 13.9937C12.0928 13.9867 12.1111 13.9743 12.1253 13.9578C12.5271 13.4836 12.8862 12.9749 13.1984 12.4375C13.5186 11.8808 13.7849 11.2948 13.9937 10.6875C14.0004 10.6668 14.0014 10.6447 13.9967 10.6235C13.992 10.6023 13.9817 10.5828 13.9669 10.5669Z"/>
</svg>
