<svg width="14" height="15" viewBox="0 0 14 15" fill="none" xmlns="http://www.w3.org/2000/svg">
<path d="M13.9669 11.2356C13.8037 11.0619 13.2278 10.5481 12.169 9.86843C11.1025 9.18281 10.3159 8.75531 10.0903 8.65562C10.0704 8.6468 10.0485 8.64356 10.0269 8.64626C10.0053 8.64896 9.98489 8.65749 9.96779 8.67093C9.60435 8.95437 8.99248 9.47499 8.95966 9.50312C8.74779 9.68468 8.74779 9.68468 8.57435 9.62812C8.26935 9.52812 7.32185 9.02499 6.49623 8.19749C5.6706 7.36999 5.14154 6.39906 5.04154 6.09437C4.98435 5.92062 4.98435 5.92062 5.16654 5.70874C5.19466 5.67593 5.7156 5.06406 5.99904 4.70093C6.01248 4.68383 6.02101 4.66339 6.02371 4.64181C6.02641 4.62022 6.02317 4.59831 6.01435 4.57843C5.91466 4.35249 5.48716 3.56624 4.80154 2.49968C4.12091 1.44124 3.60779 0.865306 3.43404 0.702181C3.41809 0.687135 3.39839 0.676668 3.37699 0.671884C3.3556 0.667099 3.33331 0.668173 3.31248 0.674994C2.70512 0.883708 2.11912 1.15002 1.56248 1.47031C1.02511 1.78269 0.516364 2.1419 0.042164 2.54374C0.0256108 2.55782 0.0132005 2.57613 0.00626385 2.59672C-0.000672766 2.61731 -0.00187396 2.6394 0.00278902 2.66062C0.0681015 2.96499 0.380289 4.23562 1.34904 5.99562C2.33748 7.79187 3.02248 8.71218 4.47404 10.1587C5.9256 11.6053 6.87498 12.3316 8.6731 13.32C10.4331 14.2887 11.7044 14.6012 12.0081 14.6659C12.0294 14.6706 12.0515 14.6693 12.0721 14.6624C12.0928 14.6555 12.1111 14.6431 12.1253 14.6266C12.5271 14.1524 12.8862 13.6436 13.1984 13.1062C13.5186 12.5496 13.7849 11.9636 13.9937 11.3562C14.0004 11.3356 14.0014 11.3135 13.9967 11.2923C13.992 11.2711 13.9817 11.2515 13.9669 11.2356Z" />
</svg>
