<svg width="60" height="7" viewBox="0 0 60 7" fill="none" xmlns="http://www.w3.org/2000/svg">
<path d="M0 0V6.86274H1.39026V4.60784H2.62941C3.3044 4.60784 3.87864 4.38235 4.34206 3.94118C4.80548 3.5 5.03719 2.95098 5.03719 2.30392C5.03719 1.65686 4.80548 1.10784 4.34206 0.666667C3.87864 0.22549 3.3044 0 2.62941 0H0ZM1.39026 3.34314V1.26471H2.62941C3.2238 1.26471 3.657 1.70588 3.657 2.30392C3.657 2.89216 3.2238 3.34314 2.62941 3.34314H1.39026Z" fill="#FF6E00"/>
<path d="M14.3343 6.86274L12.7727 4.27451C13.5888 3.91176 14.1328 3.12745 14.1328 2.27451C14.1328 1.64706 13.9011 1.10784 13.4477 0.666667C12.9944 0.22549 12.4403 0 11.7854 0H8.96462V6.86274H10.3549V4.48039H11.4127L12.8332 6.86274H14.3343ZM11.7854 1.26471C12.3093 1.26471 12.7425 1.71569 12.7425 2.27451C12.7425 2.83333 12.3093 3.29412 11.7854 3.29412H10.3549V1.26471H11.7854Z" fill="#FF6E00"/>
<path d="M19.5655 4.02941H22.2352V2.7549H19.5655V1.29412H22.487V0H18.1752V6.86274H22.5374V5.56863H19.5655V4.02941Z" fill="#FF6E00"/>
<path d="M32.0101 0L29.9952 3.2451L27.9702 0H26.5397V6.86274H27.93V2.42157L29.9146 5.59804H30.0758L32.0604 2.41176V6.86274H33.4406V0H32.0101Z" fill="#FF6E00"/>
<path d="M37.7769 6.86274H39.1672V0H37.7769V6.86274Z" fill="#FF6E00"/>
<path d="M46.1244 7C46.9202 7 47.565 6.78431 48.0687 6.35294C48.5724 5.92157 48.8243 5.34314 48.8243 4.61765V0H47.434V4.5098C47.434 5.22549 47.021 5.67647 46.1244 5.67647C45.2277 5.67647 44.8147 5.22549 44.8147 4.5098V0H43.4345V4.61765C43.4345 5.34314 43.6864 5.92157 44.1901 6.35294C44.6938 6.78431 45.3386 7 46.1244 7Z" fill="#FF6E00"/>
<path d="M58.5694 0L56.5546 3.2451L54.5296 0H53.0991V6.86274H54.4893V2.42157L56.474 5.59804H56.6352L58.6198 2.41176V6.86274H60V0H58.5694Z" fill="#FF6E00"/>
</svg>
