<svg width="120" height="15" viewBox="0 0 120 15" fill="none" xmlns="http://www.w3.org/2000/svg">
<path d="M0.5 0.243164V13.9687H3.25736V9.45885H5.715C7.05372 9.45885 8.19263 9.00787 9.11175 8.12552C10.0309 7.24316 10.4904 6.14512 10.4904 4.85101C10.4904 3.55689 10.0309 2.45885 9.11175 1.5765C8.19263 0.694144 7.05372 0.243164 5.715 0.243164H0.5ZM3.25736 6.92944V2.77258H5.715C6.89387 2.77258 7.75305 3.65493 7.75305 4.85101C7.75305 6.02748 6.89387 6.92944 5.715 6.92944H3.25736Z" fill="#FF6E00"/>
<path d="M28.9296 13.9687L25.8326 8.79218C27.451 8.06669 28.53 6.49807 28.53 4.79218C28.53 3.53728 28.0704 2.45885 27.1713 1.5765C26.2722 0.694144 25.1732 0.243164 23.8745 0.243164H18.2798V13.9687H21.0372V9.20395H23.1352L25.9525 13.9687H28.9296ZM23.8745 2.77258C24.9135 2.77258 25.7727 3.67454 25.7727 4.79218C25.7727 5.90983 24.9135 6.8314 23.8745 6.8314H21.0372V2.77258H23.8745Z" fill="#FF6E00"/>
<path d="M39.3048 8.30199H44.5998V5.75297H39.3048V2.8314H45.0993V0.243164H36.5475V13.9687H45.1992V11.3804H39.3048V8.30199Z" fill="#FF6E00"/>
<path d="M63.9867 0.243164L59.9905 6.73336L55.9743 0.243164H53.1371V13.9687H55.8944V5.0863L59.8306 11.4392H60.1503L64.0866 5.06669V13.9687H66.8239V0.243164H63.9867Z" fill="#FF6E00"/>
<path d="M75.4243 13.9687H78.1816V0.243164H75.4243V13.9687Z" fill="#FF6E00"/>
<path d="M91.98 14.2432C93.5585 14.2432 94.8372 13.8118 95.8363 12.949C96.8353 12.0863 97.3348 10.9294 97.3348 9.47846V0.243164H94.5775V9.26277C94.5775 10.6941 93.7583 11.5961 91.98 11.5961C90.2017 11.5961 89.3825 10.6941 89.3825 9.26277V0.243164H86.6451V9.47846C86.6451 10.9294 87.1446 12.0863 88.1436 12.949C89.1427 13.8118 90.4215 14.2432 91.98 14.2432Z" fill="#FF6E00"/>
<path d="M116.663 0.243164L112.667 6.73336L108.65 0.243164H105.813V13.9687H108.57V5.0863L112.507 11.4392H112.826L116.763 5.06669V13.9687H119.5V0.243164H116.663Z" fill="#FF6E00"/>
</svg>
