<svg width="16" height="13" viewBox="0 0 16 13" fill="none" xmlns="http://www.w3.org/2000/svg">
<path d="M8.37342 10.2435C7.80675 10.8102 7.20675 11.3435 6.64009 11.9102C6.44009 12.1102 6.20675 12.2102 5.94009 12.2102C5.74009 12.2102 5.64009 12.1102 5.57342 11.9435C5.14009 10.6102 4.70675 9.24351 4.27342 7.91017C4.24009 7.77684 4.17342 7.71017 4.04009 7.67684C3.00675 7.34351 1.97342 7.01017 0.97342 6.67684C0.806754 6.61017 0.67342 6.57684 0.506754 6.47684C0.306754 6.34351 0.27342 6.11017 0.440087 5.94351C0.606754 5.77684 0.806754 5.64351 1.04009 5.57684C2.30675 5.07684 3.54009 4.61017 4.80675 4.11017C8.00675 2.87684 11.2068 1.64351 14.4068 0.410174C15.0068 0.176841 15.4734 0.510174 15.4068 1.17684C15.3734 1.61017 15.2734 2.01017 15.1734 2.41017C14.4734 5.67684 13.7734 8.94351 13.1068 12.2102C12.9401 12.9768 12.4068 13.1768 11.7734 12.7102C10.7068 11.9102 9.64009 11.1435 8.57342 10.3435C8.47342 10.3102 8.44009 10.2768 8.37342 10.2435ZM5.97342 11.2435H6.00675C6.00675 11.2102 6.00675 11.1768 6.04009 11.1435C6.10675 10.4102 6.17342 9.67684 6.24009 8.91018C6.24009 8.74351 6.30675 8.64351 6.44009 8.51017C7.44009 7.64351 8.40675 6.74351 9.37342 5.84351C10.4734 4.87684 11.5401 3.87684 12.6401 2.91017C12.6734 2.87684 12.7068 2.74351 12.7734 2.67684C12.6734 2.67684 12.5734 2.61017 12.4734 2.64351C12.3401 2.67684 12.2068 2.74351 12.1068 2.81017C9.70675 4.34351 7.30675 5.84351 4.90675 7.34351C4.77342 7.44351 4.74009 7.51017 4.80675 7.64351C4.97342 8.14351 5.14009 8.67684 5.30675 9.17684C5.50675 9.87684 5.74009 10.5435 5.97342 11.2435Z"/>
</svg>
