<svg width="12" height="13" viewBox="0 0 12 13" fill="none" xmlns="http://www.w3.org/2000/svg">
<path d="M9.83538 3.63525H7.89148C8.04098 3.34444 8.12826 3.01563 8.12826 2.66158C8.12826 1.46034 7.16873 0.499268 5.99737 0.499268C4.82601 0.499268 3.86649 1.47294 3.86649 2.66158C3.86649 3.01563 3.95376 3.34435 4.10327 3.63525H2.15937L0.664063 12.4993L11.3307 12.4993L9.83538 3.63525ZM5.99737 1.70059C6.52074 1.70059 6.94439 2.13049 6.94439 2.66158C6.94439 3.19266 6.52074 3.62256 5.99737 3.62256C5.47401 3.62256 5.05035 3.19266 5.05035 2.66158C5.05035 2.13049 5.47401 1.70059 5.99737 1.70059Z" fill="#EFEFEF" fill-opacity="0.6"/>
</svg>
