<svg width="14" height="15" viewBox="0 0 14 15" fill="none" xmlns="http://www.w3.org/2000/svg">
<path fill-rule="evenodd" clip-rule="evenodd" d="M11.9603 2.70335C11.3131 2.05587 10.5443 1.54279 9.69804 1.19365C8.85178 0.844506 7.94482 0.666193 7.02938 0.668977C3.1875 0.668977 0.06 3.78085 0.0584375 7.60648C0.0567379 8.82464 0.377842 10.0215 0.989063 11.0752L0 14.669L3.69531 13.7043C4.71819 14.2584 5.86323 14.5484 7.02656 14.548H7.02938C10.8709 14.548 13.9981 11.4359 14 7.61054C14.0023 6.69821 13.8232 5.79453 13.473 4.95208C13.1229 4.10963 12.6086 3.34523 11.9603 2.70335ZM7.02938 13.3771H7.02687C5.98981 13.3774 4.97159 13.0999 4.07813 12.5734L3.86656 12.4484L1.67375 13.0209L2.25906 10.893L2.12125 10.6743C1.54137 9.75622 1.23414 8.69235 1.23531 7.60648C1.23531 4.42741 3.83563 1.84085 7.03156 1.84085C8.56468 1.83811 10.0361 2.44446 11.1222 3.52652C12.2083 4.60857 12.8201 6.07773 12.8231 7.61085C12.8219 10.7902 10.2228 13.3771 7.02938 13.3771ZM10.2072 9.05867C10.0331 8.97179 9.17594 8.55242 9.01719 8.4946C8.85844 8.43679 8.74125 8.40773 8.62531 8.58148C8.50938 8.75523 8.17531 9.14398 8.07375 9.26117C7.97219 9.37835 7.87063 9.39116 7.69656 9.30429C7.5225 9.21741 6.96094 9.0346 6.29563 8.44398C5.77781 7.98429 5.42844 7.41679 5.32688 7.24335C5.22531 7.06991 5.31594 6.97585 5.40312 6.8896C5.48156 6.81179 5.57719 6.6871 5.66437 6.58585C5.75156 6.4846 5.78062 6.4121 5.83844 6.29648C5.89625 6.18085 5.8675 6.0796 5.82406 5.99304C5.78062 5.90648 5.43219 5.05304 5.28719 4.70585C5.14563 4.36773 5.00219 4.41367 4.89531 4.40835C4.79375 4.40335 4.67656 4.4021 4.56125 4.4021C4.4731 4.4044 4.38636 4.42484 4.30647 4.46215C4.22657 4.49947 4.15522 4.55285 4.09688 4.61898C3.93719 4.79273 3.48719 5.21273 3.48719 6.06523C3.48719 6.91773 4.11219 7.74273 4.19844 7.85835C4.28469 7.97398 5.42656 9.72492 7.17375 10.4759C7.49819 10.6148 7.82968 10.7366 8.16687 10.8409C8.58406 10.9727 8.96375 10.9543 9.26375 10.9096C9.59844 10.8599 10.295 10.4902 10.4397 10.0852C10.5844 9.68023 10.5847 9.33335 10.5413 9.26117C10.4978 9.18898 10.3816 9.14523 10.2072 9.05867Z" />
</svg>
