<svg width="1320" height="211" viewBox="0 0 1320 211" fill="none" xmlns="http://www.w3.org/2000/svg">
<path d="M52.0035 172.86L25.7541 95.5307C24.1032 91.2484 22.5349 88.5307 21.0491 87.3778C19.7283 86.2248 17.9123 85.6484 15.6011 85.6484H14.8582V172.86H0V0.413086H14.8582V78.4837H21.0491L53.2417 0.413086H61.909L28.9734 79.966C33.9261 82.2719 38.0534 88.2013 41.3552 97.7542L67.6046 172.86H52.0035Z" fill="#EFEFEF"/>
<path d="M173.732 0.166016H184.133L214.344 172.86H199.239L190.324 121.966H165.312L158.131 172.86H150.207L173.732 0.166016ZM174.475 51.8013L166.303 114.801H189.086L178.19 51.8013L177.694 41.919H174.723L174.475 51.8013Z" fill="#EFEFEF"/>
<path d="M381.648 172.86H366.789V44.6366L368.028 34.7543H365.056L364.808 44.6366L344.007 172.86H333.854L310.081 44.6366L309.338 34.7543H306.366L307.604 44.6366V172.86H299.68V0.166016H317.262L339.797 124.437L340.292 134.319H343.264L343.759 124.437L363.818 0.166016H381.648V172.86Z" fill="#EFEFEF"/>
<path d="M494.072 0.413086V83.1778H526.513V0.413086H541.371V172.86H526.513V90.3425H494.072V172.86H479.214V0.413086H494.072Z" fill="#EFEFEF"/>
<path d="M684.206 0.166016V7.33073H653.004V80.9543H679.006V88.366H653.004V165.448H684.206V172.86H638.146V0.166016H684.206Z" fill="#EFEFEF"/>
<path d="M835.218 48.8366C835.218 59.3778 833.319 67.4484 829.522 73.0484C825.89 78.4837 820.938 81.6131 814.664 82.4366L811.693 82.6837V85.4013L814.664 85.6484C821.433 86.4719 827.046 90.2601 831.503 97.0131C835.961 103.601 838.19 112.248 838.19 122.954V134.813C838.19 140.084 837.447 145.025 835.961 149.637C834.475 154.248 832.329 158.284 829.522 161.742C826.881 165.201 823.579 167.919 819.617 169.895C815.655 171.872 811.28 172.86 806.492 172.86H776.281V0.413086H804.511C813.591 0.413086 820.938 3.5425 826.551 9.80132C832.329 16.0601 835.218 24.5425 835.218 35.2484V48.8366ZM802.53 80.4601C809.629 80.4601 814.334 78.0719 816.645 73.2954C819.122 68.519 820.36 60.8601 820.36 50.319V36.7307C820.36 26.8484 819.039 19.519 816.398 14.7425C813.921 9.96602 809.464 7.57779 803.025 7.57779H791.139V80.4601H802.53ZM823.331 121.225C823.331 98.8248 816.398 87.6248 802.53 87.6248H791.139V165.695H805.006C811.775 165.695 816.48 162.813 819.122 157.048C821.928 151.284 823.331 143.378 823.331 133.331V121.225Z" fill="#EFEFEF"/>
<path d="M977.162 0.166016V7.33073H945.96V80.9543H971.961V88.366H945.96V165.448H977.162V172.86H931.101V0.166016H977.162Z" fill="#EFEFEF"/>
<path d="M1058.82 210.166V168.413H1065.01C1067.49 165.119 1069.64 160.919 1071.45 155.813C1073.43 150.542 1075 144.201 1076.16 136.79C1077.48 129.213 1078.39 120.401 1078.88 110.354C1079.54 100.142 1079.87 88.366 1079.87 75.0248V0.166016H1132.12V168.413H1143.52V210.166H1128.66V175.825H1066.5V210.166H1058.82ZM1117.02 168.413V7.33073H1087.8V77.7425C1087.8 87.7896 1087.55 97.5895 1087.05 107.142C1086.56 116.531 1085.73 125.26 1084.58 133.331C1083.42 141.237 1081.85 148.237 1079.87 154.331C1078.06 160.26 1075.75 164.954 1072.94 168.413H1117.02Z" fill="#EFEFEF"/>
<path d="M1259.82 75.766C1269.73 75.766 1277.49 79.3896 1283.1 86.6366C1288.88 93.8837 1291.77 103.437 1291.77 115.295V133.578C1291.77 139.178 1290.94 144.366 1289.29 149.142C1287.64 153.919 1285.41 158.119 1282.61 161.742C1279.8 165.201 1276.42 167.919 1272.45 169.895C1268.66 171.872 1264.53 172.86 1260.07 172.86L1229.86 172.613V0.166016H1244.72V75.766H1259.82ZM1320 0.166016V172.86H1305.14V0.166016H1320ZM1276.91 115.295C1276.91 93.719 1270.72 82.9307 1258.34 82.9307H1244.72V165.448H1258.34C1263.95 165.448 1268.41 162.813 1271.71 157.542C1275.18 152.272 1276.91 144.201 1276.91 133.331V115.295Z" fill="#EFEFEF"/>
</svg>
