<svg width="138" height="25" viewBox="0 0 138 25" fill="none" xmlns="http://www.w3.org/2000/svg">
<path d="M6.99538 19.972L4.33538 11.488C4.14871 10.9467 3.95271 10.6013 3.74738 10.452C3.56071 10.3027 3.32738 10.228 3.04738 10.228V19.972H0.359375V0.399994H3.04738V9.13599H3.63538L7.58338 0.399994H8.84338L4.83938 9.21999C5.38071 9.35066 5.82871 9.63066 6.18337 10.06C6.55671 10.4893 6.87404 11.1053 7.13538 11.908L9.82338 19.972H6.99538Z" fill="#EFEFEF"/>
<path d="M19.3138 0.427994H20.9378L24.6898 20H21.9178L20.8818 14.344H18.3898L17.5498 20H16.4018L19.3138 0.427994ZM19.2578 8.29599L18.5298 13.252H20.6578L19.7058 8.29599L19.6218 7.17599H19.2858L19.2578 8.29599Z" fill="#EFEFEF"/>
<path d="M42.159 20.028H39.471V6.50399L39.611 5.384H39.275L39.247 6.50399L37.063 20.028H35.411L32.807 6.50399L32.723 5.384H32.387L32.527 6.50399V20.028H31.407V0.427994H34.403L36.671 12.384L36.755 13.504H37.091L37.147 12.384L39.107 0.427994H42.159V20.028Z" fill="#EFEFEF"/>
<path d="M52.7966 0.399994V9.66799H55.8766V0.399994H58.5646V20H55.8766V10.76H52.7966V20H50.1086V0.399994H52.7966Z" fill="#EFEFEF"/>
<path d="M72.586 0.427994V1.51999H69.17V9.444H72.026V10.536H69.17V18.908H72.586V20H66.482V0.427994H72.586Z" fill="#EFEFEF"/>
<path d="M87.8784 5.80399C87.8784 6.99866 87.6357 7.92266 87.1504 8.57599C86.6651 9.22933 86.0491 9.60266 85.3024 9.69599L84.8544 9.75199V10.06L85.3024 10.116C85.7317 10.172 86.1237 10.3213 86.4784 10.564C86.8331 10.788 87.1411 11.0867 87.4024 11.46C87.6637 11.8147 87.8691 12.244 88.0184 12.748C88.1677 13.2333 88.2424 13.7653 88.2424 14.344V15.632C88.2424 16.2107 88.1491 16.7707 87.9624 17.312C87.7757 17.8347 87.5051 18.3013 87.1504 18.712C86.8144 19.104 86.4037 19.4213 85.9184 19.664C85.4517 19.888 84.9291 20 84.3504 20H80.0664V0.399994H84.0704C84.6304 0.399994 85.1437 0.502661 85.6104 0.707995C86.0771 0.894661 86.4784 1.17466 86.8144 1.54799C87.1504 1.90266 87.4117 2.33199 87.5984 2.83599C87.7851 3.33999 87.8784 3.89066 87.8784 4.48799V5.80399ZM83.7344 9.35999C84.3504 9.35999 84.7424 9.12666 84.9104 8.65999C85.0971 8.17466 85.1904 7.33466 85.1904 6.13999V4.65599C85.1904 3.48 85.0877 2.65866 84.8824 2.19199C84.6957 1.72533 84.3224 1.49199 83.7624 1.49199H82.7544V9.35999H83.7344ZM85.5544 14.008C85.5544 12.7387 85.4051 11.8333 85.1064 11.292C84.8077 10.732 84.3504 10.452 83.7344 10.452H82.7544V18.908H83.9864C84.5277 18.908 84.9197 18.6467 85.1624 18.124C85.4237 17.6013 85.5544 16.7333 85.5544 15.52V14.008Z" fill="#EFEFEF"/>
<path d="M101.86 0.427994V1.51999H98.4442V9.444H101.3V10.536H98.4442V18.908H101.86V20H95.7562V0.427994H101.86Z" fill="#EFEFEF"/>
<path d="M108.135 24.228V19.356H108.863C109.143 18.9827 109.385 18.5067 109.591 17.928C109.815 17.3307 109.992 16.612 110.123 15.772C110.272 14.9133 110.375 13.9147 110.431 12.776C110.505 11.6187 110.543 10.284 110.543 8.77199V0.427994H117.151V19.356H118.607V24.228H115.919V20.476H109.283V24.228H108.135ZM114.463 19.356V1.51999H111.663V9.08C111.663 10.2187 111.635 11.3293 111.579 12.412C111.523 13.476 111.429 14.4653 111.299 15.38C111.168 16.276 110.991 17.0693 110.767 17.76C110.561 18.432 110.3 18.964 109.983 19.356H114.463Z" fill="#EFEFEF"/>
<path d="M129.392 8.996C130.045 8.996 130.624 9.108 131.128 9.332C131.632 9.55599 132.052 9.87333 132.388 10.284C132.743 10.6947 133.013 11.1707 133.2 11.712C133.387 12.2533 133.48 12.8507 133.48 13.504V15.604C133.48 16.22 133.377 16.7987 133.172 17.34C132.967 17.8813 132.687 18.348 132.332 18.74C131.977 19.132 131.557 19.44 131.072 19.664C130.605 19.888 130.101 20 129.56 20H125.304V0.427994H127.992V8.996H129.392ZM137.624 0.427994V20H134.936V0.427994H137.624ZM130.792 13.588C130.792 12.356 130.643 11.4693 130.344 10.928C130.064 10.368 129.644 10.088 129.084 10.088H127.992V18.908H129.196C129.681 18.908 130.064 18.6653 130.344 18.18C130.643 17.6947 130.792 16.8173 130.792 15.548V13.588Z" fill="#EFEFEF"/>
</svg>
