<svg width="50" height="60" viewBox="0 0 50 60" fill="none" xmlns="http://www.w3.org/2000/svg">
<path fill-rule="evenodd" clip-rule="evenodd" d="M1.70732 0.423488C2.76151 -0.165586 4.05186 -0.13843 5.08032 0.494473L48.4137 27.1611C49.3995 27.7678 50 28.8425 50 30C50 31.1575 49.3995 32.2322 48.4137 32.8389L5.08032 59.5055C4.05186 60.1384 2.76151 60.1656 1.70732 59.5765C0.65314 58.9874 0 57.8743 0 56.6667V3.33333C0 2.12573 0.65314 1.01256 1.70732 0.423488ZM6.66667 9.29855V50.7015L40.3065 30L6.66667 9.29855Z" fill="#194BC8"/>
<path fill-rule="evenodd" clip-rule="evenodd" d="M1.70732 0.423488C2.76151 -0.165586 4.05186 -0.13843 5.08032 0.494473L48.4137 27.1611C49.3995 27.7678 50 28.8425 50 30C50 31.1575 49.3995 32.2322 48.4137 32.8389L5.08032 59.5055C4.05186 60.1384 2.76151 60.1656 1.70732 59.5765C0.65314 58.9874 0 57.8743 0 56.6667V3.33333C0 2.12573 0.65314 1.01256 1.70732 0.423488ZM6.66667 9.29855V50.7015L40.3065 30L6.66667 9.29855Z" fill="white" fill-opacity="0.8"/>
</svg>
