<svg width="16" height="16" viewBox="0 0 16 16" fill="none" xmlns="http://www.w3.org/2000/svg">
<path d="M11.7503 0.470215C10.7479 0.470215 9.78653 0.868423 9.07772 1.57724L8.66105 1.9939C8.33561 2.31934 8.33561 2.84698 8.66105 3.17242C8.98649 3.49785 9.51412 3.49785 9.83956 3.17242L10.2562 2.75575C10.6525 2.35949 11.1899 2.13688 11.7503 2.13688C12.3107 2.13688 12.8481 2.35949 13.2444 2.75575C13.6406 3.152 13.8632 3.68944 13.8632 4.24983C13.8632 4.81021 13.6406 5.34765 13.2444 5.7439L9.91105 9.07724L9.90507 9.08328C9.71109 9.28126 9.47956 9.43854 9.22404 9.54591C8.96852 9.65328 8.69414 9.70858 8.41697 9.70858C8.13981 9.70858 7.86543 9.65328 7.6099 9.54591C7.35438 9.43854 7.12285 9.28126 6.92888 9.08328C6.60678 8.75454 6.07917 8.74916 5.75043 9.07125C5.42169 9.39335 5.4163 9.92096 5.7384 10.2497C6.08756 10.6061 6.50431 10.8892 6.96425 11.0824C7.42419 11.2757 7.91807 11.3753 8.41697 11.3753C8.91587 11.3753 9.40975 11.2757 9.86969 11.0824C10.3282 10.8897 10.7439 10.6078 11.0924 10.2529L14.4229 6.92242C15.1317 6.2136 15.5299 5.25224 15.5299 4.24983C15.5299 3.24741 15.1317 2.28605 14.4229 1.57724C13.7141 0.868423 12.7527 0.470215 11.7503 0.470215Z" fill="#194BC8"/>
<path d="M7.58365 4.62437C7.08475 4.62437 6.59087 4.72392 6.13093 4.91719C5.67237 5.10988 5.25674 5.39186 4.90822 5.74671L1.57773 9.07721C0.868911 9.78602 0.470703 10.7474 0.470703 11.7498C0.470703 12.7522 0.868911 13.7136 1.57773 14.4224C2.28654 15.1312 3.2479 15.5294 4.25031 15.5294C5.25273 15.5294 6.21409 15.1312 6.9229 14.4224L7.33957 14.0057C7.66501 13.6803 7.66501 13.1526 7.33957 12.8272C7.01413 12.5018 6.4865 12.5018 6.16106 12.8272L5.74439 13.2439C5.34814 13.6401 4.8107 13.8627 4.25031 13.8627C3.68993 13.8627 3.15249 13.6401 2.75624 13.2439C2.35998 12.8476 2.13737 12.3102 2.13737 11.7498C2.13737 11.1894 2.35998 10.652 2.75624 10.2557L6.08957 6.92238L6.09555 6.91634C6.28953 6.71836 6.52106 6.56109 6.77658 6.45371C7.0321 6.34634 7.30648 6.29104 7.58365 6.29104C7.86081 6.29104 8.13519 6.34634 8.39072 6.45371C8.64624 6.56109 8.87777 6.71836 9.07174 6.91634C9.39384 7.24508 9.92145 7.25046 10.2502 6.92837C10.5789 6.60627 10.5843 6.07866 10.2622 5.74992C9.91306 5.39356 9.49631 5.11046 9.03637 4.91719C8.57643 4.72392 8.08255 4.62437 7.58365 4.62437Z" fill="#194BC8"/>
</svg>
