<svg width="17" height="16" viewBox="0 0 17 16" fill="none" xmlns="http://www.w3.org/2000/svg">
<path fill-rule="evenodd" clip-rule="evenodd" d="M9.83366 2.16667C9.61264 2.16667 9.40068 2.25446 9.2444 2.41074C9.08812 2.56702 9.00033 2.77899 9.00033 3V3.83333C9.00033 4.9384 8.56134 5.99821 7.77994 6.77961C7.19795 7.3616 6.46153 7.75364 5.66699 7.91583V12.1667C5.66699 12.6087 5.84259 13.0326 6.15515 13.3452C6.46771 13.6577 6.89163 13.8333 7.33366 13.8333H13.167C13.1906 13.8333 13.2141 13.8343 13.2376 13.8363C13.3099 13.8425 13.4361 13.822 13.5966 13.6615C13.7625 13.4956 13.9261 13.2114 14.0194 12.8222L14.8308 8.76488C14.8147 8.56894 14.7296 8.38414 14.5896 8.24408C14.4333 8.0878 14.2213 8 14.0003 8H11.5003C11.0401 8 10.667 7.6269 10.667 7.16667V3C10.667 2.77899 10.5792 2.56702 10.4229 2.41074C10.2666 2.25446 10.0547 2.16667 9.83366 2.16667ZM5.33366 14.8333C5.28661 14.8961 5.23493 14.9558 5.17884 15.0118C4.86627 15.3244 4.44235 15.5 4.00033 15.5H2.33366C1.89163 15.5 1.46771 15.3244 1.15515 15.0118C0.842586 14.6993 0.666992 14.2754 0.666992 13.8333V8C0.666992 7.55797 0.842587 7.13405 1.15515 6.82149C1.46771 6.50893 1.89163 6.33333 2.33366 6.33333H4.83366C5.4967 6.33333 6.13258 6.06994 6.60143 5.6011C7.07027 5.13226 7.33366 4.49637 7.33366 3.83333V3C7.33366 2.33696 7.59705 1.70107 8.06589 1.23223C8.53473 0.763392 9.17062 0.5 9.83366 0.5C10.4967 0.5 11.1326 0.763392 11.6014 1.23223C12.0703 1.70107 12.3337 2.33696 12.3337 3V6.33333H14.0003C14.6634 6.33333 15.2993 6.59673 15.7681 7.06557C16.2369 7.53441 16.5003 8.17029 16.5003 8.83333C16.5003 8.88821 16.4949 8.94295 16.4841 8.99676L15.6508 13.1634C15.649 13.1724 15.6471 13.1813 15.645 13.1902C15.498 13.8171 15.2087 14.4065 14.7751 14.8401C14.3435 15.2717 13.7697 15.541 13.1364 15.5H7.33366C6.60827 15.5 5.90725 15.2636 5.33366 14.8333ZM4.00033 8H2.33366V13.8333H4.00033V8Z" fill="#194BC8"/>
</svg>
