<svg width="100" height="20" viewBox="0 0 100 20" fill="none" xmlns="http://www.w3.org/2000/svg">
<path fill-rule="evenodd" clip-rule="evenodd" d="M43.9194 20C43.251 20 42.6318 19.841 42.0617 19.5231C41.5112 19.1865 41.0984 18.7377 40.8232 18.1767H40.7642L40.1155 19.6634H36.7833L40.9411 0H44.981L44.0079 4.46003L43.2707 7.06872H43.3297C43.9784 6.56381 44.6664 6.16176 45.3938 5.86255C46.1212 5.56335 46.8485 5.41374 47.5759 5.41374C48.8734 5.41374 49.8858 5.8532 50.6132 6.73212C51.3405 7.61103 51.7042 8.87331 51.7042 10.5189C51.7042 11.8467 51.488 13.0902 51.0555 14.2496C50.623 15.3904 50.0431 16.3908 49.3157 17.2511C48.5883 18.1113 47.7528 18.7845 46.8092 19.2707C45.8853 19.7569 44.922 20 43.9194 20ZM43.6245 16.8583C44.3126 16.8583 44.9515 16.6059 45.5412 16.101C46.131 15.5774 46.6126 14.8761 46.9862 13.9972C47.3597 13.1183 47.5464 12.1178 47.5464 10.9958C47.5464 10.1543 47.3892 9.53717 47.0746 9.14446C46.7601 8.75175 46.3472 8.5554 45.8361 8.5554C45.384 8.5554 44.8729 8.6863 44.3028 8.94811C43.7523 9.19121 43.2609 9.64002 42.8284 10.2945L41.7078 15.54C41.9241 16.0075 42.1993 16.3441 42.5335 16.5498C42.8873 16.7555 43.251 16.8583 43.6245 16.8583Z" fill="white"/>
<path d="M73.0379 8.47125L74.5713 1.37448L63.3787 1.67001L63.0333 3.00001L70.0825 3.50001L66.6685 19.6634H70.7378L72.3302 11.8373H78.906L77.2252 19.6634H81.2945L85.1279 1.37448H81.0881L79.6137 8.47125H73.0379Z" fill="white"/>
<path d="M1.91671 19.6634L5.04244 4.62834H0L0.648734 1.37448H15.2033L14.5233 4.62834H9.08228L5.95656 19.6634H1.91671Z" fill="white"/>
<path fill-rule="evenodd" clip-rule="evenodd" d="M54.3071 18.4292C55.349 19.4764 56.7251 20 58.4354 20C59.438 20 60.4209 19.7943 61.3842 19.3829C62.3671 18.9715 63.2517 18.3731 64.0381 17.5877C64.8244 16.8022 65.4535 15.8672 65.9253 14.7826C66.3971 13.698 66.633 12.4825 66.633 11.1361C66.633 9.97663 66.3971 8.97616 65.9253 8.13465C65.4535 7.27443 64.7949 6.61057 63.9496 6.14306C63.1043 5.65686 62.1115 5.41375 60.9713 5.41375C59.9688 5.41375 58.976 5.61946 57.9931 6.03086C57.0298 6.44227 56.155 7.04068 55.3686 7.82609C54.5823 8.61151 53.9532 9.54653 53.4814 10.6311C53.0096 11.7158 52.7737 12.9313 52.7737 14.2777C52.7737 15.9981 53.2848 17.382 54.3071 18.4292ZM60.706 16.1851C60.1555 16.6713 59.5461 16.9145 58.8777 16.9145C58.2093 16.9145 57.6982 16.6713 57.3443 16.1851C57.0101 15.6989 56.843 15.0351 56.843 14.1936C56.843 13.1089 57.0101 12.1365 57.3443 11.2763C57.6785 10.4161 58.1208 9.74288 58.6713 9.25667C59.2414 8.75176 59.8508 8.49931 60.4995 8.49931C61.1876 8.49931 61.6987 8.74241 62.0329 9.22862C62.3868 9.69613 62.5637 10.36 62.5637 11.2202C62.5637 12.3048 62.3868 13.2772 62.0329 14.1375C61.6987 14.9977 61.2564 15.6802 60.706 16.1851Z" fill="white"/>
<path fill-rule="evenodd" clip-rule="evenodd" d="M87.4087 1.37448H93.4242C94.6823 1.37448 95.8029 1.53343 96.7858 1.85134C97.7884 2.15055 98.5747 2.6461 99.1448 3.33802C99.7149 4.01123 100 4.91819 100 6.05891C100 7.76064 99.538 9.13512 98.6141 10.1823C97.6901 11.2296 96.5204 11.9776 95.105 12.4264L98.0833 19.6634H93.837L91.36 12.9593H89.001L87.6151 19.6634H83.5457L87.4087 1.37448ZM89.6497 9.90183H91.6844C93.1195 9.90183 94.2007 9.60262 94.9281 9.00421C95.6554 8.4058 96.0191 7.61104 96.0191 6.61992C96.0191 5.85321 95.7439 5.30155 95.1935 4.96494C94.643 4.60964 93.8468 4.43198 92.8049 4.43198H90.7703L89.6497 9.90183Z" fill="white"/>
<path d="M38.0031 5.50053L37.2637 8.99758C37.0699 8.90805 36.8388 8.85416 36.5701 8.8359C36.3145 8.7985 36.0688 8.7798 35.8329 8.7798C35.1842 8.7798 34.5551 9.0042 33.9457 9.45301C33.3363 9.90182 32.7465 10.6218 32.1764 11.6129L30.5251 19.6634H26.4852L29.434 5.75035H32.7072L32.5303 8.4432H32.6482C33.2183 7.56428 33.8867 6.84432 34.6534 6.28331C35.4201 5.7036 36.2261 5.41374 37.0714 5.41374C37.4449 5.41374 37.7496 5.44179 37.9855 5.49789L38.0031 5.50053Z" fill="white"/>
<path d="M15.7834 20C14.5842 20 13.7094 19.6914 13.159 19.0743C12.6086 18.4572 12.3333 17.569 12.3333 16.4095C12.3333 16.0916 12.353 15.7737 12.3923 15.4558C12.4316 15.1379 12.4906 14.8013 12.5692 14.446L14.3975 5.75035H18.4078L16.6975 13.9691C16.6189 14.2496 16.5599 14.4928 16.5206 14.6985C16.4813 14.9042 16.4616 15.1005 16.4616 15.2875C16.4616 16.2412 16.9531 16.7181 17.936 16.7181C18.7617 16.7181 19.7348 16.1197 20.8553 14.9229L22.7426 5.75035H26.7824L23.8926 19.6634H20.6194L20.6784 17.784H20.5605C19.8921 18.3637 19.145 18.878 18.3194 19.3268C17.5134 19.7756 16.6681 20 15.7834 20Z" fill="white"/>
</svg>
