<svg width="20" height="20" viewBox="0 0 20 20" fill="none" xmlns="http://www.w3.org/2000/svg">
<path fill-rule="evenodd" clip-rule="evenodd" d="M1.66708 5.01142V13.3333C1.66708 13.9964 1.93047 14.6323 2.39931 15.1011C2.86815 15.5699 3.50404 15.8333 4.16708 15.8333H10.0004C10.4607 15.8333 10.8337 15.4602 10.8337 15C10.8337 14.5398 10.4607 14.1667 10.0004 14.1667H4.16708C3.94607 14.1667 3.73411 14.0789 3.57783 13.9226C3.42154 13.7663 3.33375 13.5543 3.33375 13.3333V6.5571L9.53816 10.6934C9.81808 10.88 10.1827 10.88 10.4627 10.6934L16.6671 6.5571V11.25C16.6671 11.7102 17.0402 12.0833 17.5004 12.0833C17.9606 12.0833 18.3337 11.7102 18.3337 11.25V5.0114C18.3339 5.00225 18.3339 4.9931 18.3337 4.98394C18.3295 4.3267 18.0666 3.69729 17.6015 3.23223C17.1327 2.76339 16.4968 2.5 15.8337 2.5H4.16708C3.50404 2.5 2.86816 2.76339 2.39931 3.23223C1.93427 3.69728 1.67136 4.32668 1.66713 4.98391C1.66696 4.99308 1.66695 5.00226 1.66708 5.01142ZM3.57783 4.41074C3.73411 4.25446 3.94607 4.16667 4.16708 4.16667H15.8337C16.0548 4.16667 16.2667 4.25446 16.423 4.41074C16.484 4.47173 16.5345 4.5412 16.5735 4.61638L10.0004 8.99846L3.4273 4.61638C3.46628 4.5412 3.51684 4.47173 3.57783 4.41074Z" fill="white"/>
<path d="M15.5897 11.9107C15.2642 11.5853 14.7366 11.5853 14.4112 11.9107C14.0857 12.2362 14.0857 12.7638 14.4112 13.0893L15.4886 14.1667H12.5004C12.0402 14.1667 11.6671 14.5398 11.6671 15C11.6671 15.4602 12.0402 15.8333 12.5004 15.8333H15.4886L14.4112 16.9107C14.0857 17.2362 14.0857 17.7638 14.4112 18.0893C14.7366 18.4147 15.2642 18.4147 15.5897 18.0893L18.0897 15.5893C18.4151 15.2638 18.4151 14.7362 18.0897 14.4107L15.5897 11.9107Z" fill="white"/>
</svg>
