<svg width="18" height="17" viewBox="0 0 18 17" fill="none" xmlns="http://www.w3.org/2000/svg">
<path fill-rule="evenodd" clip-rule="evenodd" d="M4.00033 0.5C3.11627 0.5 2.26842 0.85119 1.6433 1.47631C1.01818 2.10143 0.666992 2.94928 0.666992 3.83333V10.5C0.666992 11.3841 1.01818 12.2319 1.6433 12.857C2.26842 13.4821 3.11627 13.8333 4.00033 13.8333H4.83366V15.5C4.83366 15.8002 4.99515 16.0772 5.25641 16.2252C5.51767 16.3731 5.8383 16.369 6.09574 16.2146L10.0645 13.8333H14.0003C14.8844 13.8333 15.7322 13.4821 16.3573 12.857C16.9825 12.2319 17.3337 11.3841 17.3337 10.5V3.83333C17.3337 2.94928 16.9825 2.10143 16.3573 1.47631C15.7322 0.851189 14.8844 0.5 14.0003 0.5H4.00033ZM5.66699 4.66667C5.20676 4.66667 4.83366 5.03976 4.83366 5.5C4.83366 5.96024 5.20676 6.33333 5.66699 6.33333H12.3337C12.7939 6.33333 13.167 5.96024 13.167 5.5C13.167 5.03976 12.7939 4.66667 12.3337 4.66667H5.66699ZM5.66699 8C5.20676 8 4.83366 8.3731 4.83366 8.83333C4.83366 9.29357 5.20676 9.66667 5.66699 9.66667H10.667C11.1272 9.66667 11.5003 9.29357 11.5003 8.83333C11.5003 8.3731 11.1272 8 10.667 8H5.66699Z" fill="white"/>
</svg>
