<svg width="18" height="18" viewBox="0 0 18 18" fill="none" xmlns="http://www.w3.org/2000/svg">
<path fill-rule="evenodd" clip-rule="evenodd" d="M13.5425 0.953409C13.8443 0.605932 14.3707 0.568895 14.7181 0.870686C15.7955 1.80642 16.6611 2.96104 17.2572 4.25759C17.4494 4.67575 17.2663 5.17059 16.8481 5.36283C16.43 5.55508 15.9351 5.37194 15.7429 4.95378C15.2457 3.87242 14.5238 2.90944 13.6253 2.12901C13.2778 1.82722 13.2407 1.30089 13.5425 0.953409ZM4.45565 0.953158C4.75758 1.30051 4.72075 1.82687 4.3734 2.1288C3.47538 2.90937 2.75399 3.87234 2.25729 4.95356C2.06516 5.37178 1.57038 5.55506 1.15216 5.36293C0.733947 5.17081 0.550663 4.67603 0.742789 4.25781C1.33834 2.96143 2.20328 1.80682 3.28001 0.870905C3.62737 0.568975 4.15372 0.605801 4.45565 0.953158ZM9.00004 2.33318C8.77902 2.33318 8.56706 2.42098 8.41078 2.57726C8.2545 2.73354 8.16671 2.9455 8.16671 3.16652C8.16671 3.48876 7.98092 3.78212 7.6896 3.91987C6.86931 4.30775 6.17003 4.91154 5.66671 5.66652C5.16686 6.41628 4.87899 7.2871 4.83337 8.18681V10.6665C4.83337 10.7 4.83136 10.7334 4.82733 10.7667C4.76046 11.3191 4.58371 11.8517 4.30855 12.3332H13.6915C13.4164 11.8517 13.2396 11.3191 13.1727 10.7667C13.1687 10.7334 13.1667 10.7 13.1667 10.6665V8.18682C13.1211 7.2871 12.8332 6.41628 12.3334 5.66652C11.8301 4.91154 11.1308 4.30775 10.3105 3.91987C10.0192 3.78212 9.83337 3.48876 9.83337 3.16652C9.83337 2.9455 9.74557 2.73354 9.58929 2.57726C9.43301 2.42098 9.22105 2.33318 9.00004 2.33318ZM10.6667 13.9998H7.33337C7.33337 14.4419 7.50897 14.8658 7.82153 15.1784C8.13409 15.4909 8.55801 15.6665 9.00004 15.6665C9.44207 15.6665 9.86599 15.4909 10.1785 15.1784C10.4911 14.8658 10.6667 14.4419 10.6667 13.9998ZM5.66671 13.9998C5.66671 14.8839 6.01789 15.7318 6.64302 16.3569C7.26814 16.982 8.11598 17.3332 9.00004 17.3332C9.88409 17.3332 10.7319 16.982 11.3571 16.3569C11.9822 15.7318 12.3334 14.8839 12.3334 13.9998H15.6667C16.0452 13.9998 16.3761 13.7448 16.4725 13.3788C16.569 13.0129 16.4067 12.6279 16.0773 12.4414C15.7367 12.2485 15.4462 11.9784 15.2291 11.6527C15.0206 11.34 14.8854 10.9845 14.8334 10.6126V8.16652C14.8334 8.15349 14.8331 8.14046 14.8325 8.12744C14.7757 6.91894 14.3912 5.74866 13.7201 4.74202C13.1364 3.86644 12.355 3.14338 11.4417 2.62962C11.34 2.16701 11.108 1.73891 10.7678 1.39875C10.299 0.929909 9.66308 0.666517 9.00004 0.666517C8.337 0.666517 7.70111 0.929909 7.23227 1.39875C6.89211 1.73891 6.66009 2.16701 6.55836 2.62962C5.64506 3.14338 4.86367 3.86644 4.27995 4.74202C3.60886 5.74866 3.22435 6.91894 3.16762 8.12744C3.16701 8.14046 3.16671 8.15349 3.16671 8.16652V10.6126C3.11464 10.9845 2.97947 11.34 2.77099 11.6527C2.55388 11.9784 2.26333 12.2485 1.92274 12.4414C1.59342 12.6279 1.43111 13.0129 1.52754 13.3788C1.62397 13.7448 1.95491 13.9998 2.33337 13.9998H5.66671Z" fill="#194BC8"/>
</svg>
