<svg width="20" height="20" viewBox="0 0 20 20" fill="none" xmlns="http://www.w3.org/2000/svg">
<path d="M16.2467 3.44659L6.24667 9.27992C6.12077 9.35329 6.01632 9.45838 5.94372 9.58471C5.87112 9.71105 5.83291 9.85421 5.83291 9.99992C5.83291 10.1456 5.87112 10.2888 5.94372 10.4151C6.01632 10.5415 6.12077 10.6466 6.24667 10.7199L16.2467 16.5533C16.3733 16.6272 16.5172 16.6663 16.6638 16.6668C16.8105 16.6673 16.9546 16.6291 17.0818 16.5561C17.2089 16.483 17.3145 16.3778 17.388 16.2508C17.4614 16.1239 17.5 15.9799 17.5 15.8333V4.16659C17.5 4.01996 17.4614 3.87592 17.388 3.749C17.3145 3.62209 17.2089 3.51679 17.0818 3.44375C16.9546 3.37071 16.8105 3.33251 16.6638 3.33301C16.5172 3.33351 16.3733 3.37269 16.2467 3.44659ZM3.33333 3.33325C3.53744 3.33328 3.73445 3.40822 3.88698 3.54385C4.03951 3.67948 4.13695 3.86638 4.16083 4.06909L4.16667 4.16659V15.8333C4.16643 16.0457 4.0851 16.2499 3.93929 16.4044C3.79349 16.5588 3.59421 16.6518 3.38217 16.6642C3.17014 16.6767 2.96135 16.6077 2.79847 16.4714C2.6356 16.335 2.53092 16.1417 2.50583 15.9308L2.5 15.8333V4.16659C2.5 3.94557 2.5878 3.73361 2.74408 3.57733C2.90036 3.42105 3.11232 3.33325 3.33333 3.33325Z" fill="white"/>
</svg>
