<svg width="14" height="14" viewBox="0 0 14 14" fill="none" xmlns="http://www.w3.org/2000/svg">
<path fill-rule="evenodd" clip-rule="evenodd" d="M7.00001 0.333496C7.46025 0.333496 7.83334 0.706592 7.83334 1.16683V6.16683H12.8333C13.2936 6.16683 13.6667 6.53993 13.6667 7.00016C13.6667 7.4604 13.2936 7.8335 12.8333 7.8335H7.83334V12.8335C7.83334 13.2937 7.46025 13.6668 7.00001 13.6668C6.53977 13.6668 6.16668 13.2937 6.16668 12.8335V7.8335H1.16668C0.70644 7.8335 0.333344 7.4604 0.333344 7.00016C0.333344 6.53993 0.70644 6.16683 1.16668 6.16683H6.16668V1.16683C6.16668 0.706592 6.53977 0.333496 7.00001 0.333496Z" fill="white"/>
</svg>
