<svg width="16" height="18" viewBox="0 0 16 18" fill="none" xmlns="http://www.w3.org/2000/svg">
<path fill-rule="evenodd" clip-rule="evenodd" d="M2.24375 2.57725C2.40003 2.42097 2.61199 2.33317 2.83301 2.33317H7.83301V4.83317C7.83301 5.2752 8.0086 5.69912 8.32116 6.01168C8.63372 6.32424 9.05765 6.49984 9.49967 6.49984H13.6663V5.6665C13.6663 5.44549 13.5785 5.23353 13.4223 5.07725L9.2556 0.910582C9.09932 0.754301 8.88736 0.666504 8.66634 0.666504H2.83301C2.16997 0.666504 1.53408 0.929896 1.06524 1.39874C0.5964 1.86758 0.333008 2.50346 0.333008 3.1665V14.8332C0.333008 15.4962 0.5964 16.1321 1.06524 16.6009C1.53408 17.0698 2.16997 17.3332 2.83301 17.3332H4.91634C5.37658 17.3332 5.74967 16.9601 5.74967 16.4998C5.74967 16.0396 5.37658 15.6665 4.91634 15.6665H2.83301C2.61199 15.6665 2.40003 15.5787 2.24375 15.4224C2.08747 15.2661 1.99967 15.0542 1.99967 14.8332V3.1665C1.99967 2.94549 2.08747 2.73353 2.24375 2.57725ZM10.8212 4.83317L9.49967 3.51168V4.83317H10.8212Z" fill="#194BC8"/>
<path d="M9.77818 15.6763C9.98018 15.5031 10.2782 15.3887 10.6108 15.3887H12.5552C12.8879 15.3887 13.1858 15.5031 13.3878 15.6763C13.5859 15.846 13.6663 16.0461 13.6663 16.2221V17.0554C13.6663 17.5156 14.0394 17.8887 14.4997 17.8887C14.9599 17.8887 15.333 17.5156 15.333 17.0554V16.2221C15.333 15.5139 15.0038 14.8662 14.4725 14.4108C13.9452 13.9589 13.254 13.7221 12.5552 13.7221H10.6108C9.91202 13.7221 9.22084 13.9589 8.69353 14.4108C8.16225 14.8662 7.83301 15.5139 7.83301 16.2221V17.0554C7.83301 17.5156 8.2061 17.8887 8.66634 17.8887C9.12658 17.8887 9.49967 17.5156 9.49967 17.0554V16.2221C9.49967 16.0461 9.58016 15.846 9.77818 15.6763Z" fill="#194BC8"/>
<path fill-rule="evenodd" clip-rule="evenodd" d="M11.583 8.1665C10.92 8.1665 10.2841 8.4299 9.81524 8.89874C9.3464 9.36758 9.08301 10.0035 9.08301 10.6665C9.08301 11.3295 9.3464 11.9654 9.81524 12.4343C10.2841 12.9031 10.92 13.1665 11.583 13.1665C12.246 13.1665 12.8819 12.9031 13.3508 12.4343C13.8196 11.9654 14.083 11.3295 14.083 10.6665C14.083 10.0035 13.8196 9.36758 13.3508 8.89874C12.8819 8.4299 12.246 8.1665 11.583 8.1665ZM10.9938 10.0772C11.15 9.92097 11.362 9.83317 11.583 9.83317C11.804 9.83317 12.016 9.92097 12.1723 10.0772C12.3285 10.2335 12.4163 10.4455 12.4163 10.6665C12.4163 10.8875 12.3285 11.0995 12.1723 11.2558C12.016 11.412 11.804 11.4998 11.583 11.4998C11.362 11.4998 11.15 11.412 10.9938 11.2558C10.8375 11.0995 10.7497 10.8875 10.7497 10.6665C10.7497 10.4455 10.8375 10.2335 10.9938 10.0772Z" fill="#194BC8"/>
</svg>
