<svg width="14" height="14" viewBox="0 0 14 14" fill="none" xmlns="http://www.w3.org/2000/svg">
<g opacity="0.6">
<path fill-rule="evenodd" clip-rule="evenodd" d="M4.04748 1.52173C4.61367 1.28721 5.2205 1.1665 5.83334 1.1665C6.44617 1.1665 7.05301 1.28721 7.61919 1.52173C8.18538 1.75625 8.69983 2.1 9.13317 2.53334C9.56651 2.96668 9.91025 3.48113 10.1448 4.04731C10.3793 4.6135 10.5 5.22034 10.5 5.83317C10.5 6.44601 10.3793 7.05284 10.1448 7.61903C9.98504 8.00466 9.77464 8.36629 9.51977 8.69464L12.6625 11.8374C12.8903 12.0652 12.8903 12.4345 12.6625 12.6623C12.4347 12.8901 12.0653 12.8901 11.8375 12.6623L8.69481 9.5196C8.36646 9.77447 8.00483 9.98487 7.61919 10.1446C7.05301 10.3791 6.44617 10.4998 5.83334 10.4998C5.2205 10.4998 4.61367 10.3791 4.04748 10.1446C3.4813 9.91009 2.96685 9.56634 2.53351 9.133C2.10017 8.69966 1.75642 8.18521 1.5219 7.61903C1.28738 7.05284 1.16667 6.44601 1.16667 5.83317C1.16667 5.22034 1.28738 4.6135 1.5219 4.04731C1.75642 3.48113 2.10017 2.96668 2.53351 2.53334C2.96685 2.1 3.4813 1.75625 4.04748 1.52173ZM5.83334 2.33317C5.37371 2.33317 4.91859 2.4237 4.49395 2.59959C4.06931 2.77548 3.68347 3.03329 3.35846 3.3583C3.03346 3.6833 2.77565 4.06914 2.59976 4.49378C2.42387 4.91842 2.33334 5.37354 2.33334 5.83317C2.33334 6.2928 2.42387 6.74792 2.59976 7.17256C2.77565 7.5972 3.03346 7.98304 3.35846 8.30804C3.68347 8.63305 4.06931 8.89086 4.49395 9.06675C4.91859 9.24264 5.37371 9.33317 5.83334 9.33317C6.29297 9.33317 6.74809 9.24264 7.17273 9.06675C7.59737 8.89086 7.98321 8.63305 8.30821 8.30804C8.63322 7.98304 8.89103 7.5972 9.06692 7.17256C9.24281 6.74792 9.33334 6.2928 9.33334 5.83317C9.33334 5.37354 9.24281 4.91842 9.06692 4.49378C8.89103 4.06914 8.63322 3.6833 8.30821 3.3583C7.98321 3.03329 7.59737 2.77548 7.17273 2.59959C6.74809 2.4237 6.29296 2.33317 5.83334 2.33317Z" fill="#194BC8"/>
</g>
</svg>
