<svg width="18" height="14" viewBox="0 0 18 14" fill="none" xmlns="http://www.w3.org/2000/svg">
<path fill-rule="evenodd" clip-rule="evenodd" d="M0.667132 2.81744C0.666964 2.8266 0.666948 2.83575 0.667081 2.84489V11.1668C0.667081 11.8299 0.930473 12.4658 1.39931 12.9346C1.86815 13.4034 2.50404 13.6668 3.16708 13.6668H14.8337C15.4968 13.6668 16.1327 13.4034 16.6015 12.9346C17.0704 12.4658 17.3337 11.8299 17.3337 11.1668V2.8449C17.3339 2.83575 17.3339 2.82659 17.3337 2.81743C17.3295 2.16019 17.0666 1.53078 16.6015 1.06573C16.1327 0.596888 15.4968 0.333496 14.8337 0.333496H3.16708C2.50404 0.333496 1.86815 0.596888 1.39931 1.06573C0.934258 1.53078 0.671348 2.1602 0.667132 2.81744ZM2.57783 2.24424C2.73411 2.08796 2.94607 2.00016 3.16708 2.00016H14.8337C15.0548 2.00016 15.2667 2.08796 15.423 2.24424C15.484 2.30523 15.5346 2.3747 15.5735 2.44987L9.00041 6.83195L2.4273 2.44988C2.46628 2.3747 2.51684 2.30523 2.57783 2.24424ZM15.6671 4.39059V11.1668C15.6671 11.3878 15.5793 11.5998 15.423 11.7561C15.2667 11.9124 15.0548 12.0002 14.8337 12.0002H3.16708C2.94607 12.0002 2.73411 11.9124 2.57783 11.7561C2.42154 11.5998 2.33375 11.3878 2.33375 11.1668V4.39059L8.53816 8.52687C8.81808 8.71348 9.18275 8.71348 9.46266 8.52687L15.6671 4.39059Z" fill="#194BC8"/>
</svg>
