<svg width="14" height="12" viewBox="0 0 14 12" fill="none" xmlns="http://www.w3.org/2000/svg">
<path fill-rule="evenodd" clip-rule="evenodd" d="M3.19524 0.861766C3.45559 0.601417 3.8777 0.601417 4.13805 0.861766L6.80472 3.52843C7.06507 3.78878 7.06507 4.21089 6.80472 4.47124C6.54437 4.73159 6.12226 4.73159 5.86191 4.47124L4.33331 2.94265V10.6665C4.33331 11.0347 4.03484 11.3332 3.66665 11.3332C3.29846 11.3332 2.99998 11.0347 2.99998 10.6665V2.94265L1.47138 4.47124C1.21103 4.73159 0.788925 4.73159 0.528575 4.47124C0.268226 4.21089 0.268226 3.78878 0.528575 3.52843L3.19524 0.861766ZM10.3333 0.666504C10.7015 0.666504 11 0.964981 11 1.33317V9.05703L12.5286 7.52843C12.7889 7.26808 13.211 7.26808 13.4714 7.52843C13.7317 7.78878 13.7317 8.21089 13.4714 8.47124L10.8047 11.1379C10.5444 11.3983 10.1223 11.3983 9.86191 11.1379L7.19524 8.47124C6.93489 8.21089 6.93489 7.78878 7.19524 7.52843C7.45559 7.26808 7.8777 7.26808 8.13805 7.52843L9.66665 9.05703V1.33317C9.66665 0.964981 9.96512 0.666504 10.3333 0.666504Z" fill="#194BC8"/>
<path fill-rule="evenodd" clip-rule="evenodd" d="M3.19524 0.861766C3.45559 0.601417 3.8777 0.601417 4.13805 0.861766L6.80472 3.52843C7.06507 3.78878 7.06507 4.21089 6.80472 4.47124C6.54437 4.73159 6.12226 4.73159 5.86191 4.47124L4.33331 2.94265V10.6665C4.33331 11.0347 4.03484 11.3332 3.66665 11.3332C3.29846 11.3332 2.99998 11.0347 2.99998 10.6665V2.94265L1.47138 4.47124C1.21103 4.73159 0.788925 4.73159 0.528575 4.47124C0.268226 4.21089 0.268226 3.78878 0.528575 3.52843L3.19524 0.861766ZM10.3333 0.666504C10.7015 0.666504 11 0.964981 11 1.33317V9.05703L12.5286 7.52843C12.7889 7.26808 13.211 7.26808 13.4714 7.52843C13.7317 7.78878 13.7317 8.21089 13.4714 8.47124L10.8047 11.1379C10.5444 11.3983 10.1223 11.3983 9.86191 11.1379L7.19524 8.47124C6.93489 8.21089 6.93489 7.78878 7.19524 7.52843C7.45559 7.26808 7.8777 7.26808 8.13805 7.52843L9.66665 9.05703V1.33317C9.66665 0.964981 9.96512 0.666504 10.3333 0.666504Z" fill="white" fill-opacity="0.4"/>
</svg>
