<svg width="18" height="18" viewBox="0 0 18 18" fill="none" xmlns="http://www.w3.org/2000/svg">
<path d="M6.917 5.24996C6.58548 5.24996 6.26754 5.38165 6.03312 5.61608C5.79869 5.8505 5.667 6.16844 5.667 6.49996V7.33329C5.667 8.65938 6.19378 9.93114 7.13147 10.8688C8.06915 11.8065 9.34092 12.3333 10.667 12.3333H11.5003C11.8319 12.3333 12.1498 12.2016 12.3842 11.9672C12.6186 11.7328 12.7503 11.4148 12.7503 11.0833C12.7503 10.7518 12.6186 10.4338 12.3842 10.1994C12.1498 9.96499 11.8319 9.83329 11.5003 9.83329H10.667C10.3355 9.83329 10.0175 9.96499 9.78312 10.1994C9.69882 10.2837 9.62781 10.3788 9.57143 10.4814C9.10107 10.3177 8.66883 10.0492 8.30998 9.69032C7.95113 9.33147 7.68255 8.89922 7.51885 8.42887C7.62149 8.37248 7.71659 8.30147 7.80088 8.21718C8.03531 7.98275 8.167 7.66481 8.167 7.33329V6.49996C8.167 6.16844 8.03531 5.8505 7.80088 5.61608C7.56646 5.38165 7.24852 5.24996 6.917 5.24996Z" fill="#194BC8"/>
<path fill-rule="evenodd" clip-rule="evenodd" d="M14.4146 2.67372C12.8704 1.35664 10.8987 0.648357 8.86942 0.681796C6.84013 0.715235 4.8928 1.48809 3.39287 2.85533C1.89294 4.22257 0.943534 6.0902 0.722814 8.10773C0.519412 9.96695 0.947723 11.8357 1.93091 13.416L0.735949 16.168C0.613663 16.4497 0.656144 16.7757 0.846507 17.0166C1.03687 17.2575 1.34428 17.3742 1.64654 17.3203L5.59455 16.6167C7.35601 17.4073 9.34061 17.5629 11.2083 17.0512C13.1658 16.5151 14.8603 15.2829 15.9738 13.5861C17.0873 11.8893 17.5433 9.84444 17.2563 7.83529C16.9692 5.82613 15.9588 3.99079 14.4146 2.67372ZM8.89688 2.34824C10.5203 2.32149 12.0977 2.88811 13.333 3.94177C14.5684 4.99543 15.3767 6.4637 15.6064 8.07103C15.836 9.67836 15.4712 11.3142 14.5804 12.6717C13.6896 14.0291 12.334 15.0148 10.768 15.4438C9.20204 15.8728 7.53336 15.7155 6.07512 15.0015C5.9162 14.9237 5.73665 14.8985 5.56246 14.9295L2.88341 15.407L3.63972 13.6652C3.75547 13.3986 3.72398 13.0909 3.5566 12.8533C2.62153 11.526 2.20302 9.903 2.3796 8.28898C2.55617 6.67496 3.3157 5.18086 4.51564 4.08707C5.71558 2.99328 7.27345 2.37499 8.89688 2.34824Z" fill="#194BC8"/>
</svg>
