<svg width="14" height="14" viewBox="0 0 14 14" fill="none" xmlns="http://www.w3.org/2000/svg">
<path fill-rule="evenodd" clip-rule="evenodd" d="M4.44845 0.840966C5.25729 0.505935 6.1242 0.333496 6.99967 0.333496C7.87515 0.333496 8.74206 0.505935 9.5509 0.840966C10.3597 1.176 11.0947 1.66706 11.7137 2.28612C12.3328 2.90517 12.8238 3.6401 13.1589 4.44894C13.4939 5.25778 13.6663 6.12468 13.6663 7.00016C13.6663 7.87564 13.4939 8.74255 13.1589 9.55139C12.8238 10.3602 12.3328 11.0951 11.7137 11.7142C11.0947 12.3333 10.3597 12.8243 9.5509 13.1594C8.74206 13.4944 7.87515 13.6668 6.99967 13.6668C6.1242 13.6668 5.25729 13.4944 4.44845 13.1594C3.63961 12.8243 2.90469 12.3333 2.28563 11.7142C1.66657 11.0951 1.17551 10.3602 0.840478 9.55139C0.505446 8.74255 0.333008 7.87564 0.333008 7.00016C0.333008 6.12468 0.505446 5.25778 0.840478 4.44894C1.17551 3.6401 1.66657 2.90517 2.28563 2.28612C2.90469 1.66706 3.63961 1.176 4.44845 0.840966ZM6.99967 1.66683C6.29929 1.66683 5.60577 1.80478 4.9587 2.07281C4.31163 2.34083 3.72368 2.73368 3.22844 3.22893C2.73319 3.72417 2.34034 4.31211 2.07232 4.95918C1.80429 5.60625 1.66634 6.29978 1.66634 7.00016C1.66634 7.70055 1.80429 8.39407 2.07232 9.04114C2.34034 9.68821 2.73319 10.2762 3.22844 10.7714C3.72368 11.2666 4.31163 11.6595 4.9587 11.9275C5.60577 12.1955 6.29929 12.3335 6.99967 12.3335C7.70006 12.3335 8.39358 12.1955 9.04065 11.9275C9.68772 11.6595 10.2757 11.2666 10.7709 10.7714C11.2662 10.2762 11.659 9.68821 11.927 9.04114C12.1951 8.39407 12.333 7.70055 12.333 7.00016C12.333 6.29978 12.1951 5.60625 11.927 4.95918C11.659 4.31211 11.2662 3.72417 10.7709 3.22893C10.2757 2.73368 9.68772 2.34083 9.04065 2.07281C8.39358 1.80478 7.70006 1.66683 6.99967 1.66683ZM6.99967 3.00016C7.36786 3.00016 7.66634 3.29864 7.66634 3.66683V6.64337L9.36947 7.7788C9.67583 7.98303 9.75861 8.39694 9.55437 8.7033C9.35014 9.00965 8.93623 9.09243 8.62987 8.8882L6.62987 7.55486C6.44441 7.43122 6.33301 7.22306 6.33301 7.00016V3.66683C6.33301 3.29864 6.63148 3.00016 6.99967 3.00016Z" fill="black"/>
</svg>
