<svg width="12" height="12" viewBox="0 0 12 12" fill="none" xmlns="http://www.w3.org/2000/svg">
<path fill-rule="evenodd" clip-rule="evenodd" d="M0.41107 0.410582C0.736507 0.0851447 1.26414 0.0851447 1.58958 0.410582L6.00033 4.82133L10.4111 0.410582C10.7365 0.0851447 11.2641 0.0851447 11.5896 0.410582C11.915 0.736018 11.915 1.26366 11.5896 1.58909L7.17884 5.99984L11.5896 10.4106C11.915 10.736 11.915 11.2637 11.5896 11.5891C11.2641 11.9145 10.7365 11.9145 10.4111 11.5891L6.00033 7.17835L1.58958 11.5891C1.26414 11.9145 0.736507 11.9145 0.41107 11.5891C0.0856329 11.2637 0.0856329 10.736 0.41107 10.4106L4.82181 5.99984L0.41107 1.58909C0.0856329 1.26366 0.0856329 0.736018 0.41107 0.410582Z" fill="#32AF00"/>
</svg>
