<svg width="17" height="16" viewBox="0 0 17 16" fill="none" xmlns="http://www.w3.org/2000/svg">
<path fill-rule="evenodd" clip-rule="evenodd" d="M13.1364 0.500194C13.7697 0.459232 14.3435 0.728496 14.7751 1.16013C15.2087 1.59367 15.498 2.18314 15.645 2.80999C15.6471 2.81888 15.649 2.82781 15.6508 2.83676L16.4841 7.00343C16.4949 7.05724 16.5003 7.11198 16.5003 7.16686C16.5003 7.8299 16.2369 8.46579 15.7681 8.93463C15.2993 9.40347 14.6634 9.66686 14.0003 9.66686H12.3337V13.0002C12.3337 13.6632 12.0703 14.2991 11.6014 14.768C11.1326 15.2368 10.4967 15.5002 9.83366 15.5002C9.17062 15.5002 8.53473 15.2368 8.06589 14.768C7.59705 14.2991 7.33366 13.6632 7.33366 13.0002V12.1669C7.33366 11.5038 7.07027 10.8679 6.60143 10.3991C6.13258 9.93025 5.4967 9.66686 4.83366 9.66686H2.33366C1.89163 9.66686 1.46771 9.49126 1.15515 9.1787C0.842587 8.86614 0.666992 8.44222 0.666992 8.00019V2.16686C0.666992 1.72483 0.842587 1.30091 1.15515 0.988349C1.46771 0.675789 1.89163 0.500194 2.33366 0.500194H4.00033C4.44235 0.500194 4.86628 0.675789 5.17884 0.988349C5.23493 1.04444 5.28661 1.10412 5.33366 1.16685C5.90725 0.736638 6.60827 0.500194 7.33366 0.500194H13.1364ZM4.00033 2.16686H2.33366V8.00019H4.00033V2.16686ZM5.66699 8.08436V3.83353C5.66699 3.3915 5.84259 2.96758 6.15515 2.65502C6.46771 2.34245 6.89163 2.16686 7.33366 2.16686H13.167C13.1906 2.16686 13.2141 2.16586 13.2376 2.16386C13.3099 2.15771 13.4361 2.17817 13.5966 2.33865C13.7625 2.50456 13.9261 2.78876 14.0194 3.178L14.8308 7.23531C14.8147 7.43126 14.7296 7.61605 14.5896 7.75612C14.4333 7.9124 14.2213 8.00019 14.0003 8.00019H11.5003C11.0401 8.00019 10.667 8.37329 10.667 8.83353V13.0002C10.667 13.2212 10.5792 13.4332 10.4229 13.5894C10.2666 13.7457 10.0547 13.8335 9.83366 13.8335C9.61265 13.8335 9.40068 13.7457 9.2444 13.5894C9.08812 13.4332 9.00033 13.2212 9.00033 13.0002V12.1669C9.00033 11.0618 8.56134 10.002 7.77994 9.22058C7.19795 8.6386 6.46153 8.24656 5.66699 8.08436Z" fill="#194BC8"/>
</svg>
