<svg width="20" height="20" viewBox="0 0 20 20" fill="none" xmlns="http://www.w3.org/2000/svg">
<path fill-rule="evenodd" clip-rule="evenodd" d="M13.9239 2.42252C14.4083 1.93844 15.0651 1.6665 15.75 1.6665C16.4352 1.6665 17.0923 1.93868 17.5768 2.42317C18.0612 2.90766 18.3334 3.56476 18.3334 4.24993C18.3334 4.9349 18.0614 5.59183 17.5772 6.07627C17.577 6.07641 17.5773 6.07614 17.5772 6.07627L16.5239 7.13331C16.4946 7.17652 16.4609 7.21758 16.4226 7.25585C16.3851 7.29339 16.3448 7.32659 16.3025 7.35547L10.5903 13.0881C10.4339 13.2451 10.2215 13.3333 10 13.3333H7.5C7.03976 13.3333 6.66667 12.9602 6.66667 12.4999V9.99993C6.66667 9.7784 6.75487 9.56598 6.9118 9.40962L12.6445 3.6974C12.6733 3.6551 12.7065 3.61488 12.7441 3.57734C12.7823 3.53907 12.8234 3.5053 12.8666 3.47603L13.9232 2.42317C13.9235 2.42296 13.9237 2.42274 13.9239 2.42252ZM13.3427 5.35447L8.33333 10.346V11.6666H9.65395L14.6455 6.65723L13.3427 5.35447ZM15.8219 5.47661L14.5233 4.17806L15.1018 3.60168C15.2737 3.42976 15.5069 3.33317 15.75 3.33317C15.9931 3.33317 16.2263 3.42976 16.3982 3.60168C16.5702 3.77361 16.6668 4.00679 16.6668 4.24993C16.6668 4.49307 16.5702 4.72625 16.3982 4.89817L15.8219 5.47661ZM3.23223 5.73216C3.70107 5.26332 4.33696 4.99993 5 4.99993H5.83333C6.29357 4.99993 6.66667 5.37302 6.66667 5.83326C6.66667 6.2935 6.29357 6.66659 5.83333 6.66659H5C4.77899 6.66659 4.56702 6.75439 4.41074 6.91067C4.25446 7.06695 4.16667 7.27891 4.16667 7.49993V14.9999C4.16667 15.2209 4.25446 15.4329 4.41074 15.5892C4.56702 15.7455 4.77899 15.8333 5 15.8333H12.5C12.721 15.8333 12.933 15.7455 13.0893 15.5892C13.2455 15.4329 13.3333 15.2209 13.3333 14.9999V14.1666C13.3333 13.7064 13.7064 13.3333 14.1667 13.3333C14.6269 13.3333 15 13.7064 15 14.1666V14.9999C15 15.663 14.7366 16.2989 14.2678 16.7677C13.7989 17.2365 13.163 17.4999 12.5 17.4999H5C4.33696 17.4999 3.70107 17.2365 3.23223 16.7677C2.76339 16.2989 2.5 15.663 2.5 14.9999V7.49993C2.5 6.83689 2.76339 6.201 3.23223 5.73216Z" fill="black" fill-opacity="0.6"/>
</svg>
