<svg width="20" height="20" viewBox="0 0 20 20" fill="none" xmlns="http://www.w3.org/2000/svg">
<g opacity="0.6">
<path fill-rule="evenodd" clip-rule="evenodd" d="M5.00008 2.5C4.11603 2.5 3.26818 2.85119 2.64306 3.47631C2.01794 4.10143 1.66675 4.94928 1.66675 5.83333V12.5C1.66675 13.3841 2.01794 14.2319 2.64306 14.857C3.26818 15.4821 4.11603 15.8333 5.00008 15.8333H5.83341V17.5C5.83341 17.8002 5.99491 18.0772 6.25617 18.2252C6.51742 18.3731 6.83805 18.369 7.09549 18.2146L11.0642 15.8333H15.0001C15.8841 15.8333 16.732 15.4821 17.3571 14.857C17.9822 14.2319 18.3334 13.3841 18.3334 12.5V5.83333C18.3334 4.94928 17.9822 4.10143 17.3571 3.47631C16.732 2.85119 15.8841 2.5 15.0001 2.5H5.00008ZM6.66675 6.66667C6.20651 6.66667 5.83341 7.03976 5.83341 7.5C5.83341 7.96024 6.20651 8.33333 6.66675 8.33333H13.3334C13.7937 8.33333 14.1667 7.96024 14.1667 7.5C14.1667 7.03976 13.7937 6.66667 13.3334 6.66667H6.66675ZM6.66675 10C6.20651 10 5.83341 10.3731 5.83341 10.8333C5.83341 11.2936 6.20651 11.6667 6.66675 11.6667H11.6667C12.127 11.6667 12.5001 11.2936 12.5001 10.8333C12.5001 10.3731 12.127 10 11.6667 10H6.66675Z" fill="#194BC8"/>
</g>
</svg>
