<svg width="16" height="16" viewBox="0 0 12 14" fill="none" xmlns="http://www.w3.org/2000/svg">
<path d="M3.50032 0.333496H1.83366C1.39163 0.333496 0.967708 0.509091 0.655147 0.821651C0.342587 1.13421 0.166992 1.55814 0.166992 2.00016V12.0002C0.166992 12.4422 0.342587 12.8661 0.655147 13.1787C0.967708 13.4912 1.39163 13.6668 1.83366 13.6668H3.50032C3.94235 13.6668 4.36628 13.4912 4.67884 13.1787C4.9914 12.8661 5.16699 12.4422 5.16699 12.0002V2.00016C5.16699 1.55814 4.9914 1.13421 4.67884 0.821651C4.36628 0.509091 3.94235 0.333496 3.50032 0.333496ZM10.167 0.333496H8.50032C8.0583 0.333496 7.63437 0.509091 7.32181 0.821651C7.00925 1.13421 6.83366 1.55814 6.83366 2.00016V12.0002C6.83366 12.4422 7.00925 12.8661 7.32181 13.1787C7.63437 13.4912 8.0583 13.6668 8.50032 13.6668H10.167C10.609 13.6668 11.0329 13.4912 11.3455 13.1787C11.6581 12.8661 11.8337 12.4422 11.8337 12.0002V2.00016C11.8337 1.55814 11.6581 1.13421 11.3455 0.821651C11.0329 0.509091 10.609 0.333496 10.167 0.333496Z" fill="white"/>
</svg>
