<svg width="16" height="14" viewBox="0 0 16 14" fill="none" xmlns="http://www.w3.org/2000/svg">
<path d="M0.5 1.16659V12.8333C0.499957 12.9799 0.538602 13.1239 0.612035 13.2508C0.685468 13.3778 0.791087 13.483 0.91823 13.5561C1.04537 13.6291 1.18953 13.6673 1.33616 13.6668C1.48279 13.6663 1.62669 13.6272 1.75333 13.5533L11.7533 7.71992C11.8792 7.64656 11.9837 7.54147 12.0563 7.41513C12.1289 7.2888 12.1671 7.14563 12.1671 6.99992C12.1671 6.85421 12.1289 6.71105 12.0563 6.58471C11.9837 6.45838 11.8792 6.35329 11.7533 6.27992L1.75333 0.446588C1.62669 0.372688 1.48279 0.33351 1.33616 0.333013C1.18953 0.332515 1.04537 0.370714 0.91823 0.443753C0.791087 0.516792 0.685468 0.622086 0.612035 0.749001C0.538602 0.875916 0.499957 1.01996 0.5 1.16659ZM14.6667 0.333255C14.8708 0.333282 15.0678 0.408218 15.2203 0.543851C15.3728 0.679483 15.4703 0.866379 15.4942 1.06909L15.5 1.16659V12.8333C15.4998 13.0457 15.4184 13.2499 15.2726 13.4044C15.1268 13.5588 14.9275 13.6518 14.7155 13.6642C14.5035 13.6767 14.2947 13.6077 14.1318 13.4714C13.9689 13.335 13.8643 13.1417 13.8392 12.9308L13.8333 12.8333V1.16659C13.8333 0.945574 13.9211 0.733613 14.0774 0.577333C14.2337 0.421052 14.4457 0.333255 14.6667 0.333255Z" fill="white"/>
</svg>
