<svg width="14" height="14" viewBox="0 0 14 14" fill="none" xmlns="http://www.w3.org/2000/svg">
<path d="M10.3328 1.22676C11.3383 1.80733 12.1747 2.64044 12.7593 3.64362C13.3439 4.64681 13.6563 5.78527 13.6657 6.94632C13.6751 8.10736 13.3811 9.25073 12.8128 10.2632C12.2445 11.2757 11.4216 12.1222 10.4256 12.719C9.42959 13.3157 8.29501 13.642 7.13416 13.6655C5.97332 13.689 4.82646 13.4089 3.80713 12.8529C2.7878 12.297 1.93134 11.4844 1.32254 10.4958C0.713739 9.5071 0.373703 8.37656 0.336097 7.21609L0.332764 7.00009L0.336097 6.78409C0.373432 5.63275 0.708462 4.51073 1.30852 3.52742C1.90858 2.54411 2.7532 1.73306 3.76002 1.17335C4.76685 0.613633 5.90153 0.324356 7.05343 0.333716C8.20534 0.343077 9.33517 0.650756 10.3328 1.22676ZM5.19864 4.2853C5.05896 4.20215 4.89371 4.17291 4.73398 4.20306C4.57425 4.23321 4.43103 4.32068 4.33127 4.44902C4.23151 4.57737 4.18209 4.73774 4.19228 4.89997C4.20248 5.06221 4.2716 5.21513 4.38664 5.32997L6.0561 7.00009L4.38664 8.67021L4.33131 8.73288C4.2277 8.86687 4.17898 9.03528 4.19504 9.2039C4.2111 9.37251 4.29075 9.52869 4.41779 9.64071C4.54483 9.75274 4.70975 9.8122 4.87905 9.80703C5.04835 9.80186 5.20934 9.73244 5.32931 9.61288L6.99943 7.94342L8.66955 9.61288L8.73222 9.66821C8.86621 9.77182 9.03462 9.82054 9.20323 9.80448C9.37185 9.78842 9.52803 9.70877 9.64005 9.58173C9.75207 9.45469 9.81154 9.28977 9.80637 9.12047C9.8012 8.95117 9.73178 8.79018 9.61222 8.67021L7.94276 7.00009L9.61222 5.32997L9.66755 5.2673C9.77116 5.13331 9.81988 4.9649 9.80382 4.79629C9.78776 4.62767 9.70811 4.47149 9.58107 4.35947C9.45403 4.24745 9.28911 4.18798 9.11981 4.19315C8.95051 4.19832 8.78952 4.26774 8.66955 4.3873L6.99943 6.05676L5.32931 4.3873L5.26664 4.33197L5.19864 4.2853Z" fill="#194BC8"/>
</svg>
