<svg width="20" height="20" viewBox="0 0 20 20" fill="none" xmlns="http://www.w3.org/2000/svg">
<path d="M10.8625 6.90587C10.5345 6.58306 10.0068 6.58729 9.68402 6.91533C9.3612 7.24337 9.36544 7.77099 9.69348 8.0938L10.3372 8.72726C9.91637 8.77094 9.48946 8.86014 9.0809 9.01441C8.42965 9.26032 7.80825 9.67872 7.35615 10.3495C6.90542 11.0183 6.66699 11.8725 6.66699 12.9165C6.66699 13.3767 7.04009 13.7498 7.50033 13.7498C7.96056 13.7498 8.33366 13.3767 8.33366 12.9165C8.33366 12.1272 8.51189 11.6168 8.73822 11.281C8.96318 10.9472 9.27925 10.721 9.66965 10.5736C9.96123 10.4635 10.2833 10.4019 10.6121 10.3755L9.69348 11.2795C9.36544 11.6023 9.3612 12.1299 9.68402 12.458C10.0068 12.786 10.5345 12.7902 10.8625 12.4674L13.0847 10.2806C13.2439 10.124 13.3335 9.90998 13.3335 9.68665C13.3335 9.46332 13.2439 9.24933 13.0847 9.09268L10.8625 6.90587Z" fill="#194BC8"/>
<path fill-rule="evenodd" clip-rule="evenodd" d="M6.66699 1.6665C6.00395 1.6665 5.36807 1.9299 4.89923 2.39874C4.43038 2.86758 4.16699 3.50346 4.16699 4.1665V15.8332C4.16699 16.4962 4.43038 17.1321 4.89923 17.6009C5.36807 18.0698 6.00395 18.3332 6.66699 18.3332H13.3337C13.9967 18.3332 14.6326 18.0698 15.1014 17.6009C15.5703 17.1321 15.8337 16.4962 15.8337 15.8332V4.1665C15.8337 3.50346 15.5703 2.86758 15.1014 2.39874C14.6326 1.9299 13.9967 1.6665 13.3337 1.6665H6.66699ZM5.83366 15.8332V4.1665H14.167V15.8332H5.83366Z" fill="#194BC8"/>
</svg>
