<svg width="20" height="20" viewBox="0 0 20 20" fill="none" xmlns="http://www.w3.org/2000/svg">
<path d="M15.1225 5.95521C15.2007 5.87707 15.3066 5.83317 15.4171 5.83317C15.5277 5.83317 15.6336 5.87707 15.7118 5.95521C15.7899 6.03335 15.8338 6.13933 15.8338 6.24984V13.3332C15.8338 14.4382 15.3948 15.498 14.6134 16.2794C13.832 17.0609 12.7722 17.4998 11.6671 17.4998H10.1723C9.48271 17.4997 8.80395 17.3285 8.19686 17.0014C7.58952 16.6742 7.07293 16.2014 6.69343 15.6253C6.63962 15.5434 6.58601 15.4614 6.53262 15.3792L6.53209 15.3783C6.29111 15.0084 5.39674 13.4508 3.82176 10.6512C3.76855 10.5567 3.75434 10.4451 3.78215 10.3402C3.80995 10.2353 3.87784 10.1452 3.97091 10.0894C4.10901 10.0065 4.27085 9.9722 4.43071 9.99183C4.59056 10.0115 4.73928 10.0839 4.85323 10.1978L6.07789 11.4224C6.40333 11.7479 6.93097 11.7479 7.2564 11.4224C7.58184 11.097 7.58184 10.5694 7.25641 10.2439L6.03107 9.01858C5.65425 8.64219 5.16248 8.40251 4.63386 8.33759C4.10534 8.27268 3.57028 8.3862 3.11365 8.66011C2.6483 8.93911 2.31015 9.38864 2.17112 9.9131C2.0321 10.4376 2.10315 10.9956 2.36919 11.4684C3.92489 14.2337 4.85533 15.8575 5.13501 16.2872C5.19002 16.3718 5.24524 16.4564 5.30068 16.5408L5.30118 16.5415C5.83251 17.3483 6.55591 18.0106 7.40641 18.4687C8.17486 18.8827 9.02532 19.1184 9.89483 19.1599C9.92943 19.1642 9.96469 19.1665 10.0005 19.1665H11.6671C13.2142 19.1665 14.698 18.5519 15.7919 17.458C16.8859 16.364 17.5005 14.8803 17.5005 13.3332V6.24984C17.5005 5.6973 17.281 5.1674 16.8903 4.7767C16.4996 4.386 15.9697 4.1665 15.4171 4.1665C14.8646 4.1665 14.3347 4.386 13.944 4.7767C13.5533 5.1674 13.3338 5.6973 13.3338 6.24984C13.3338 6.71007 13.7069 7.08317 14.1671 7.08317C14.6274 7.08317 15.0005 6.71007 15.0005 6.24984C15.0005 6.13933 15.0444 6.03335 15.1225 5.95521Z" fill="#194BC8"/>
<path d="M10.2569 2.53188C10.3074 2.51094 10.3616 2.50016 10.4163 2.50016C10.4711 2.50016 10.5252 2.51094 10.5758 2.53188C10.6263 2.55282 10.6723 2.58351 10.711 2.6222C10.7497 2.66089 10.7804 2.70683 10.8013 2.75738C10.8222 2.80793 10.833 2.86211 10.833 2.91683V10.0002C10.833 10.4604 11.2061 10.8335 11.6663 10.8335C12.1266 10.8335 12.4997 10.4604 12.4997 10.0002V4.5835C12.4997 4.47299 12.5436 4.36701 12.6217 4.28887C12.6999 4.21073 12.8058 4.16683 12.9163 4.16683C13.0268 4.16683 13.1328 4.21073 13.211 4.28887C13.2891 4.36701 13.333 4.47299 13.333 4.5835V10.0002C13.333 10.4604 13.7061 10.8335 14.1663 10.8335C14.6266 10.8335 14.9997 10.4604 14.9997 10.0002V4.5835C14.9997 4.03096 14.7802 3.50106 14.3895 3.11036C13.9988 2.71966 13.4689 2.50016 12.9163 2.50016C12.764 2.50016 12.6134 2.51685 12.467 2.5492C12.4406 2.40223 12.3985 2.25817 12.3411 2.11957C12.2364 1.86681 12.0829 1.63715 11.8895 1.44369C11.696 1.25024 11.4664 1.09678 11.2136 0.99208C10.9608 0.887383 10.6899 0.833496 10.4163 0.833496C10.1428 0.833496 9.87185 0.887383 9.61908 0.99208C9.36632 1.09678 9.13666 1.25024 8.9432 1.44369C8.74975 1.63715 8.59629 1.86681 8.49159 2.11957C8.43418 2.25817 8.39205 2.40223 8.3657 2.54919C8.21926 2.51684 8.06866 2.50016 7.91634 2.50016C7.36381 2.50016 6.8339 2.71966 6.4432 3.11036C6.0525 3.50106 5.83301 4.03096 5.83301 4.5835V10.0002C5.83301 10.4604 6.2061 10.8335 6.66634 10.8335C6.84826 10.8335 7.01657 10.9054 7.1536 10.964C7.36324 11.0535 7.49967 11.1118 7.49967 10.8335V4.5835C7.49967 4.47299 7.54357 4.36701 7.62171 4.28887C7.69985 4.21073 7.80583 4.16683 7.91634 4.16683C8.02685 4.16683 8.13283 4.21073 8.21097 4.28887C8.28911 4.36701 8.33301 4.47299 8.33301 4.5835V10.0002C8.33301 10.4604 8.7061 10.8335 9.16634 10.8335C9.62658 10.8335 9.99967 10.4604 9.99967 10.0002V2.91683C9.99967 2.86211 10.0105 2.80793 10.0314 2.75738C10.0523 2.70683 10.083 2.66089 10.1217 2.6222C10.1604 2.58351 10.2063 2.55282 10.2569 2.53188Z" fill="#194BC8"/>
</svg>
