<svg width="20" height="20" viewBox="0 0 20 20" fill="none" xmlns="http://www.w3.org/2000/svg">
<path d="M10.8622 6.90587C10.5341 6.58306 10.0065 6.58729 9.68371 6.91533C9.3609 7.24337 9.36513 7.77099 9.69317 8.0938L10.3369 8.72726C9.91607 8.77094 9.48915 8.86014 9.08059 9.01441C8.42935 9.26032 7.80795 9.67872 7.35585 10.3495C6.90511 11.0183 6.66669 11.8725 6.66669 12.9165C6.66669 13.3767 7.03978 13.7498 7.50002 13.7498C7.96026 13.7498 8.33335 13.3767 8.33335 12.9165C8.33335 12.1272 8.51158 11.6168 8.73791 11.281C8.96288 10.9472 9.27895 10.721 9.66934 10.5736C9.96093 10.4635 10.283 10.4019 10.6118 10.3755L9.69317 11.2795C9.36513 11.6023 9.3609 12.1299 9.68371 12.458C10.0065 12.786 10.5341 12.7902 10.8622 12.4674L13.0844 10.2806C13.2436 10.124 13.3332 9.90998 13.3332 9.68665C13.3332 9.46332 13.2436 9.24933 13.0844 9.09268L10.8622 6.90587Z" fill="black" fill-opacity="0.6"/>
<path fill-rule="evenodd" clip-rule="evenodd" d="M6.66669 1.6665C6.00365 1.6665 5.36776 1.9299 4.89892 2.39874C4.43008 2.86758 4.16669 3.50346 4.16669 4.1665V15.8332C4.16669 16.4962 4.43008 17.1321 4.89892 17.6009C5.36776 18.0698 6.00365 18.3332 6.66669 18.3332H13.3334C13.9964 18.3332 14.6323 18.0698 15.1011 17.6009C15.57 17.1321 15.8334 16.4962 15.8334 15.8332V4.1665C15.8334 3.50346 15.57 2.86758 15.1011 2.39874C14.6323 1.9299 13.9964 1.6665 13.3334 1.6665H6.66669ZM6.07743 3.57725C6.23371 3.42097 6.44567 3.33317 6.66669 3.33317H8.33335C8.33335 3.79341 8.70645 4.1665 9.16669 4.1665H10.8334C11.2936 4.1665 11.6667 3.79341 11.6667 3.33317H13.3334C13.5544 3.33317 13.7663 3.42097 13.9226 3.57725C14.0789 3.73353 14.1667 3.94549 14.1667 4.1665V15.8332C14.1667 16.0542 14.0789 16.2661 13.9226 16.4224C13.7663 16.5787 13.5544 16.6665 13.3334 16.6665H6.66669C6.44567 16.6665 6.23371 16.5787 6.07743 16.4224C5.92115 16.2661 5.83335 16.0542 5.83335 15.8332V4.1665C5.83335 3.94549 5.92115 3.73353 6.07743 3.57725Z" fill="black" fill-opacity="0.6"/>
</svg>
