<svg width="20" height="20" viewBox="0 0 20 20" fill="none" xmlns="http://www.w3.org/2000/svg">
<path fill-rule="evenodd" clip-rule="evenodd" d="M1.6667 5.81744C1.66654 5.8266 1.66652 5.83575 1.66665 5.84489V14.1668C1.66665 14.8299 1.93005 15.4658 2.39889 15.9346C2.86773 16.4034 3.50361 16.6668 4.16665 16.6668H15.8333C16.4964 16.6668 17.1322 16.4034 17.6011 15.9346C18.0699 15.4658 18.3333 14.8299 18.3333 14.1668V5.8449C18.3335 5.83575 18.3334 5.82659 18.3333 5.81743C18.3291 5.16019 18.0661 4.53078 17.6011 4.06573C17.1322 3.59689 16.4964 3.3335 15.8333 3.3335H4.16665C3.50361 3.3335 2.86773 3.59689 2.39889 4.06573C1.93383 4.53078 1.67092 5.1602 1.6667 5.81744ZM3.5774 5.24424C3.73368 5.08796 3.94564 5.00016 4.16665 5.00016H15.8333C16.0543 5.00016 16.2663 5.08796 16.4226 5.24424C16.4836 5.30523 16.5341 5.3747 16.5731 5.44987L9.99999 9.83195L3.42687 5.44988C3.46585 5.3747 3.51641 5.30523 3.5774 5.24424ZM16.6667 7.39059V14.1668C16.6667 14.3878 16.5789 14.5998 16.4226 14.7561C16.2663 14.9124 16.0543 15.0002 15.8333 15.0002H4.16665C3.94564 15.0002 3.73368 14.9124 3.5774 14.7561C3.42112 14.5998 3.33332 14.3878 3.33332 14.1668V7.39059L9.53774 11.5269C9.81765 11.7135 10.1823 11.7135 10.4622 11.5269L16.6667 7.39059Z" fill="black" fill-opacity="0.6"/>
</svg>
