<svg width="20" height="20" viewBox="0 0 20 20" fill="none" xmlns="http://www.w3.org/2000/svg">
<path fill-rule="evenodd" clip-rule="evenodd" d="M7.15482 2.15515C7.46738 1.84259 7.89131 1.66699 8.33333 1.66699H11.6667C12.1087 1.66699 12.5326 1.84259 12.8452 2.15515C13.1577 2.46771 13.3333 2.89163 13.3333 3.33366V5.00033H15.8236C15.8295 5.00026 15.8353 5.00026 15.8412 5.00033H16.6667C17.1269 5.00033 17.5 5.37342 17.5 5.83366C17.5 6.2939 17.1269 6.66699 16.6667 6.66699H16.6001L15.833 15.8718C15.8231 16.5211 15.5609 17.1416 15.1011 17.6014C14.6323 18.0703 13.9964 18.3337 13.3333 18.3337H6.66667C6.00362 18.3337 5.36774 18.0703 4.8989 17.6014C4.43906 17.1416 4.17685 16.5211 4.16696 15.8718L3.39989 6.66699H3.33333C2.8731 6.66699 2.5 6.2939 2.5 5.83366C2.5 5.37342 2.8731 5.00033 3.33333 5.00033H4.15878C4.16467 5.00026 4.17055 5.00026 4.17641 5.00033H6.66667V3.33366C6.66667 2.89163 6.84226 2.46771 7.15482 2.15515ZM5.07233 6.66699L5.83045 15.7645C5.83237 15.7875 5.83333 15.8106 5.83333 15.8337C5.83333 16.0547 5.92113 16.2666 6.07741 16.4229C6.23369 16.5792 6.44565 16.667 6.66667 16.667H13.3333C13.5543 16.667 13.7663 16.5792 13.9226 16.4229C14.0789 16.2666 14.1667 16.0547 14.1667 15.8337C14.1667 15.8106 14.1676 15.7875 14.1695 15.7645L14.9277 6.66699H5.07233ZM11.6667 5.00033H8.33333V3.33366H11.6667V5.00033ZM8.33333 8.33366C8.79357 8.33366 9.16667 8.70676 9.16667 9.16699V14.167C9.16667 14.6272 8.79357 15.0003 8.33333 15.0003C7.8731 15.0003 7.5 14.6272 7.5 14.167V9.16699C7.5 8.70676 7.8731 8.33366 8.33333 8.33366ZM11.6667 8.33366C12.1269 8.33366 12.5 8.70676 12.5 9.16699V14.167C12.5 14.6272 12.1269 15.0003 11.6667 15.0003C11.2064 15.0003 10.8333 14.6272 10.8333 14.167V9.16699C10.8333 8.70676 11.2064 8.33366 11.6667 8.33366Z" fill="black" fill-opacity="0.6"/>
</svg>
