<svg width="11" height="11"  viewBox="0 0 11 11" fill="currenColor" xmlns="http://www.w3.org/2000/svg">
<path fill-rule="evenodd" clip-rule="evenodd" d="M5.75593 0.744078C6.08136 1.06951 6.08136 1.59715 5.75593 1.92259L2.17852 5.5L5.75593 9.07741C6.08136 9.40285 6.08136 9.93049 5.75593 10.2559C5.43049 10.5814 4.90285 10.5814 4.57742 10.2559L0.410749 6.08926C0.0853125 5.76382 0.0853125 5.23618 0.410749 4.91074L4.57742 0.744078C4.90285 0.418641 5.43049 0.418641 5.75593 0.744078ZM10.7559 0.744078C11.0814 1.06951 11.0814 1.59715 10.7559 1.92259L7.17852 5.5L10.7559 9.07741C11.0814 9.40285 11.0814 9.93049 10.7559 10.2559C10.4305 10.5814 9.90285 10.5814 9.57742 10.2559L5.41075 6.08926C5.08531 5.76382 5.08531 5.23618 5.41075 4.91074L9.57742 0.744078C9.90285 0.418641 10.4305 0.418641 10.7559 0.744078Z" />
</svg>
