<svg width="20" height="20" viewBox="0 0 20 20" fill="none" xmlns="http://www.w3.org/2000/svg">
<path d="M7.9167 6.24996C7.58518 6.24996 7.26723 6.38165 7.03281 6.61608C6.79839 6.8505 6.6667 7.16844 6.6667 7.49996V8.33329C6.6667 9.65938 7.19348 10.9311 8.13116 11.8688C9.06884 12.8065 10.3406 13.3333 11.6667 13.3333H12.5C12.8315 13.3333 13.1495 13.2016 13.3839 12.9672C13.6183 12.7328 13.75 12.4148 13.75 12.0833C13.75 11.7518 13.6183 11.4338 13.3839 11.1994C13.1495 10.965 12.8315 10.8333 12.5 10.8333H11.6667C11.3352 10.8333 11.0172 10.965 10.7828 11.1994C10.6985 11.2837 10.6275 11.3788 10.5711 11.4814C10.1008 11.3177 9.66852 11.0492 9.30967 10.6903C8.95082 10.3315 8.68224 9.89922 8.51855 9.42887C8.62119 9.37248 8.71628 9.30147 8.80058 9.21718C9.035 8.98275 9.16669 8.66481 9.16669 8.33329V7.49996C9.16669 7.16844 9.035 6.8505 8.80058 6.61608C8.56616 6.38165 8.24821 6.24996 7.9167 6.24996Z" fill="black" fill-opacity="0.6"/>
<path fill-rule="evenodd" clip-rule="evenodd" d="M15.4143 3.67372C13.8701 2.35664 11.8984 1.64836 9.86912 1.6818C7.83983 1.71524 5.89249 2.48809 4.39257 3.85533C2.89264 5.22257 1.94323 7.0902 1.72251 9.10773C1.51911 10.967 1.94742 12.8357 2.93061 14.416L1.73564 17.168C1.61336 17.4497 1.65584 17.7757 1.8462 18.0166C2.03657 18.2575 2.34397 18.3742 2.64624 18.3203L6.59425 17.6167C8.35571 18.4073 10.3403 18.5629 12.208 18.0512C14.1655 17.5151 15.86 16.2829 16.9735 14.5861C18.087 12.8893 18.543 10.8444 18.256 8.83529C17.9689 6.82613 16.9585 4.99079 15.4143 3.67372ZM9.89658 3.34824C11.52 3.32149 13.0974 3.88811 14.3327 4.94177C15.5681 5.99543 16.3764 7.4637 16.6061 9.07103C16.8357 10.6784 16.4709 12.3142 15.5801 13.6717C14.6893 15.0291 13.3337 16.0148 11.7677 16.4438C10.2017 16.8728 8.53305 16.7155 7.07481 16.0015C6.9159 15.9237 6.73635 15.8985 6.56215 15.9295L3.8831 16.407L4.63941 14.6652C4.75517 14.3986 4.72367 14.0909 4.55629 13.8533C3.62123 12.526 3.20271 10.903 3.37929 9.28898C3.55587 7.67496 4.31539 6.18086 5.51534 5.08707C6.71528 3.99328 8.27315 3.37499 9.89658 3.34824Z" fill="black" fill-opacity="0.6"/>
</svg>
