<svg width="20" height="20" viewBox="0 0 20 20" fill="none" xmlns="http://www.w3.org/2000/svg">
<path d="M7.917 6.24996C7.58548 6.24996 7.26754 6.38165 7.03312 6.61608C6.79869 6.8505 6.667 7.16844 6.667 7.49996V8.33329C6.667 9.65938 7.19378 10.9311 8.13147 11.8688C9.06915 12.8065 10.3409 13.3333 11.667 13.3333H12.5003C12.8319 13.3333 13.1498 13.2016 13.3842 12.9672C13.6186 12.7328 13.7503 12.4148 13.7503 12.0833C13.7503 11.7518 13.6186 11.4338 13.3842 11.1994C13.1498 10.965 12.8319 10.8333 12.5003 10.8333H11.667C11.3355 10.8333 11.0175 10.965 10.7831 11.1994C10.6988 11.2837 10.6278 11.3788 10.5714 11.4814C10.1011 11.3177 9.66883 11.0492 9.30998 10.6903C8.95113 10.3315 8.68255 9.89922 8.51885 9.42887C8.62149 9.37248 8.71659 9.30147 8.80088 9.21718C9.03531 8.98275 9.167 8.66481 9.167 8.33329V7.49996C9.167 7.16844 9.03531 6.8505 8.80088 6.61608C8.56646 6.38165 8.24852 6.24996 7.917 6.24996Z" fill="#194BC8"/>
<path fill-rule="evenodd" clip-rule="evenodd" d="M15.4146 3.67372C13.8704 2.35664 11.8987 1.64836 9.86942 1.6818C7.84013 1.71524 5.8928 2.48809 4.39287 3.85533C2.89294 5.22257 1.94353 7.0902 1.72281 9.10773C1.51941 10.967 1.94772 12.8357 2.93091 14.416L1.73595 17.168C1.61366 17.4497 1.65614 17.7757 1.84651 18.0166C2.03687 18.2575 2.34428 18.3742 2.64654 18.3203L6.59455 17.6167C8.35601 18.4073 10.3406 18.5629 12.2083 18.0512C14.1658 17.5151 15.8603 16.2829 16.9738 14.5861C18.0873 12.8893 18.5433 10.8444 18.2563 8.83529C17.9692 6.82613 16.9588 4.99079 15.4146 3.67372ZM9.89688 3.34824C11.5203 3.32149 13.0977 3.88811 14.333 4.94177C15.5684 5.99543 16.3767 7.4637 16.6064 9.07103C16.836 10.6784 16.4712 12.3142 15.5804 13.6717C14.6896 15.0291 13.334 16.0148 11.768 16.4438C10.202 16.8728 8.53336 16.7155 7.07512 16.0015C6.9162 15.9237 6.73665 15.8985 6.56246 15.9295L3.88341 16.407L4.63972 14.6652C4.75547 14.3986 4.72398 14.0909 4.5566 13.8533C3.62153 12.526 3.20302 10.903 3.3796 9.28898C3.55617 7.67496 4.3157 6.18086 5.51564 5.08707C6.71558 3.99328 8.27345 3.37499 9.89688 3.34824Z" fill="#194BC8"/>
</svg>
